<svg xmlns="http://www.w3.org/2000/svg" width="103" height="20" fill="none"><path fill="#ADADB0" d="M97.44 17.28c0-1.485 1.222-2.69 2.726-2.69 1.506 0 2.727 1.205 2.727 2.69 0 1.486-1.221 2.691-2.727 2.691-1.504 0-2.727-1.204-2.727-2.69Zm-86.973-7.127q0-2.557-1.002-3.793-1-1.234-3.042-1.234H4.975V15.55h1.108q2.268.001 3.325-1.33 1.058-1.329 1.059-4.066Zm5.163-.177q0 4.658-2.537 7.177-2.537 2.52-7.136 2.52H0V1.067h6.373q4.434 0 6.846 2.291t2.412 6.619Zm16.5 9.698h4.741V.988h-4.74zm11.4-6.968q0 1.787.473 2.724t1.587.938q1.104 0 1.559-.938t.454-2.724q0-1.778-.46-2.683-.462-.908-1.577-.908-1.09.001-1.563.901t-.473 2.69m8.897 0q0 3.405-1.812 5.31t-5.073 1.905q-3.127 0-4.976-1.948-1.85-1.949-1.85-5.267 0-3.394 1.813-5.275 1.814-1.88 5.087-1.88 2.023 0 3.575.87a5.9 5.9 0 0 1 2.394 2.494q.843 1.621.842 3.79Zm1.883 6.97h4.741V5.796h-4.74zm-.001-15.56h4.74V.988h-4.74zm14.346 12.02q.959 0 2.291-.479v3.492a9.3 9.3 0 0 1-1.824.594q-.867.178-2.031.178-2.388 0-3.444-1.183-1.052-1.182-1.053-3.63V9.385h-1.66V5.798h1.66V2.254l4.777-.82v4.364h3.025v3.588H67.37v5.402q0 1.348 1.284 1.348Zm10.973 0q.96 0 2.292-.479v3.492a9.2 9.2 0 0 1-1.825.594q-.866.178-2.03.178-2.388 0-3.443-1.183-1.055-1.182-1.055-3.63V9.385h-1.66V5.798h1.66V2.2l4.777-.766v4.364h3.026v3.588h-3.026v5.402q0 1.348 1.284 1.348m8.274-5.122q.097-1.139.66-1.672.565-.533 1.4-.533.911 0 1.449.602.54.599.563 1.604h-4.072Zm6.685-3.827q-1.69-1.635-4.794-1.636-3.26 0-5.02 1.88-1.757 1.88-1.757 5.396 0 3.405 1.897 5.25 1.897 1.843 5.33 1.843 1.647 0 2.835-.221a8.3 8.3 0 0 0 2.29-.789l-.729-3.128q-.807.327-1.531.493-1.046.24-2.297.24-1.37 0-2.164-.661-.793-.663-.842-1.826h8.473v-2.131q0-3.075-1.691-4.71m-72.666 3.827q.098-1.139.66-1.672.565-.533 1.401-.533.91 0 1.448.602.54.599.565 1.604zm6.686-3.827q-1.69-1.635-4.794-1.636-3.262 0-5.02 1.88t-1.758 5.396q0 3.405 1.899 5.25 1.896 1.843 5.328 1.843 1.647 0 2.836-.221a8.3 8.3 0 0 0 2.29-.789l-.73-3.128q-.806.327-1.53.493-1.049.24-2.297.24-1.37 0-2.164-.661-.794-.663-.843-1.826h8.474v-2.131q0-3.075-1.69-4.71Z"/></svg>