<svg xmlns="http://www.w3.org/2000/svg" width="74" height="30" fill="none"><g fill="#ADADB0" clip-path="url(#a)"><path d="M0 27.793h14.388v2.08H0zM0 23.8h14.388v2.088H0zm4.105-3.98h6.172v2.087H4.105zm0-3.98h6.172v2.087H4.105zm0-3.98h6.172v2.086H4.105zm0-3.989h6.172v2.087H4.105zm10.283-3.984H0v2.087h14.388zm0-3.981H0v2.087h14.388zm2.053 25.982H38.57a7.5 7.5 0 0 0 .822-2.087H16.44zM36.846 15.84H20.553v2.087h18.016a8.3 8.3 0 0 0-1.723-2.087m-16.293-3.98v2.086h16.293a7.8 7.8 0 0 0 1.723-2.087zM38.57 3.887H16.44v2.087h22.95a9 9 0 0 0-.821-2.087ZM31.768-.094H16.44v2.087h20.611a7.74 7.74 0 0 0-5.284-2.087Zm-5.051 7.965h-6.164v2.087h6.164zm6.172 2.087h6.45a8 8 0 0 0 .278-2.087H32.89zM20.553 19.82h6.164v2.087h-6.164zm12.336 0v2.087h6.728c0-.718-.095-1.42-.278-2.087zM16.441 29.858l15.327.022a7.75 7.75 0 0 0 5.292-2.087H16.44zm24.67-2.065h10.276v2.08H41.111zm0-3.993h10.276v2.088H41.111zm4.106-3.98h6.171v2.087h-6.171zm-.002-3.98h6.171v2.087h-6.171zm9.031-11.953H41.111v2.087h13.846zM52.883-.094H41.11v2.087h12.483zm10.832 27.887h10.283v2.08H63.715zm0-3.993h10.283v2.088H63.715zm.002-3.98h6.171v2.087h-6.171zm-.002-3.98h6.171v2.087h-6.171zm.002-1.894h6.171V11.86H58.132l-.58 1.688-.578-1.688H45.216v2.087h6.171V12.03l.653 1.916h11.024l.652-1.916zm6.171-6.075H59.494l-.71 2.087h11.104zM62.229-.094l-.711 2.087H74V-.094zM57.55 29.858l.712-2.065H56.84zm-1.362-3.97h2.727l.733-2.087h-4.185zm-1.384-3.981H60.3l.726-2.087h-6.949l.726 2.087Zm-1.378-3.98h8.26l.704-2.087h-9.675l.71 2.087Zm-8.211-7.969h11.104l-.71-2.087H45.214v2.087Zm14.939-3.984H74V3.887H60.858z"/></g><defs><clipPath id="a"><path fill="#fff" d="M0 0h74v30H0z"/></clipPath></defs></svg>