<svg xmlns="http://www.w3.org/2000/svg"><defs><font id="icon" horiz-adv-x="1000"><font-face ascent="800" descent="200" font-family="icon"/><glyph d="M484.125 694.685c-15.583-3-275.083-114.667-327.5-140.875-42.708-21.375-52.417-31.334-52.417-53.75 0-12.417 3.875-21.334 12.709-29.334 12.541-11.291 55.666-33.291 120.25-61.375l23.916-10.416 52.75 23.75c29.042 13.083 79.792 35.708 112.792 50.291l60 26.584 12.5-2.667c16.5-3.458 35.917-13.042 39.125-19.208 6.208-12.042 6.958-39.5 1.375-51.375-3.875-8.292-20.792-18.459-74.542-44.917-66.416-32.667-69.833-34.417-70-36.333-.416-6.209 89.917-40.834 106.584-40.834 10.583 0 34.791 8.917 113.291 41.667C734.208 395.643 835 440.31 863.042 455.851c28.75 15.917 32.75 21.25 32.75 43.5 0 32.625-5.542 36.292-149.875 99.375-124.334 54.292-214.75 91.084-230.542 93.792-12.667 2.125-26.458 3.125-31.25 2.167m-318.167-369.25c-1.75-4.5-5.666-23.875-9.708-47.875-2.417-14.375-2.958-27.209-2.875-71.667.083-52.042.25-54.583 3.917-65 4.583-13 12.833-24.667 21.375-30.333 11.375-7.5 49.041-18 64.625-18h5.541l1.125 13.75c1.5 17.791.167 181.208-1.458 184.833-.708 1.5-7.417 5.542-14.917 9-22.875 10.5-64.666 29.083-65.458 29.083-.417 0-1.375-1.708-2.167-3.791m630.667-12.75c-15.583-6.292-76.333-31.459-135-55.959-141.833-59.208-129.042-54.75-152.5-53.583-29.25 1.417-43.083 4.75-100.292 24.083-29.041 9.792-53.375 17.209-54.125 16.459-2.75-2.75-3.666-29.125-3.791-107.875l-.125-80.917 36.75-24.917c20.208-13.708 48.166-32.625 62.083-42.083 41.583-28.125 48.958-30.708 65.708-22.917 4.792 2.25 31.042 18.959 58.334 37.167 82.208 54.875 98.625 62.75 177.458 85.208 28.708 8.167 56.625 16.542 62.125 18.625 12.917 4.875 25.792 17.459 29.833 29.084 9.167 26.458 5.959 143.708-4.791 174.166-2.709 7.667-8.417 15.042-11.542 14.959-1-.042-14.542-5.209-30.125-11.5M253 83.81c-.75-1.167-1.625-35.125-1.958-75.459l-.625-73.375L262-75.982c6.375-6 15.292-12.708 19.792-14.917 11.25-5.541 25.125-5.541 36.5.042 11.458 5.625 25.125 19.542 27.375 27.917 3 11.125 5.083 44.416 5.083 81.625l.042 35.291-9.584 3.667c-35.416 13.458-78.5 28.25-82.333 28.25-2.5 0-5.167-.958-5.875-2.083" glyph-name="academic-cap" horiz-adv-x="1000" unicode=""/><glyph d="M186.403 643.861c-8.083-1.875-24.667-14.541-28.333-21.625-4.75-9.125-5.667-37.583-6.834-211.5l-1.166-170.75-13-14.708c-31.75-36-40.792-67.208-29.167-101.042 5.292-15.458 18.708-36.75 33.125-52.708l9.042-10 1.083-29.167c1.167-32.166 3.375-44.166 10.125-55.708 5.208-8.875 18-18.042 29.25-21 22.625-5.917 47.542 9 54.25 32.417 2.917 10.208 5.833 39.833 5.833 59.416 0 13.75.167 14.417 5.167 19.167 9.708 9.208 25.333 31.542 32.583 46.542 9.459 19.5 13.167 36.625 10.459 48.25-4.875 21.041-20.875 49.333-38.75 68.625l-9.459 10.25v376.79l-11.25 10.167c-6.166 5.583-14.25 11.583-17.916 13.292-8 3.791-25.792 5.458-35.042 3.291m597.167-1.416c-16.209-6.334-25-17.375-27.875-34.959-2.542-15.666-5.042-147.166-5.084-265.708V240.32l-8.625-9.375c-29.916-32.625-42.916-63.209-38.083-89.625 4.458-24.334 13.583-42 34.167-66.125l10.875-12.709V47.82c0-35.375 7-64.667 18.541-77.792 9.917-11.25 18-15 32.292-14.875 14.125.083 21.417 2.958 31.708 12.417 8.75 8.041 12.792 15.166 15.584 27.291 2.5 10.834 5.125 38.25 5.166 54.5.042 12.459.209 13 6.542 20.292 29.958 34.625 39.833 56.583 37.958 84.375-1.583 23.875-10.125 42.875-30.75 68.5l-11.541 14.333-1.084 123.167c-.583 67.75-1.583 152.708-2.166 188.792l-1.084 65.625-9.875 10.583c-17.875 19.042-37.25 25.042-56.666 17.417m-299.042 0c-11.667-2.792-22.417-13-27.292-25.917-3.125-8.333-6.541-38.875-6.583-58.917l-.042-18.916-10.916-11.834c-15.459-16.666-26.917-32.416-30-41.166-6.167-17.667-5.875-52.542.625-69.625 4-10.5 12.416-23.167 26.083-39.209l10.875-12.708v-63c.042-87.375 3.042-263.208 4.958-291.042 1.834-26.625 4.25-32.541 17.959-44.25 13.333-11.416 25.583-14.083 42.166-9.166 18.917 5.625 29.459 17.791 33.125 38.333 3.25 17.875 5.125 87.75 6.25 229.75l1.084 138.25 9.916 11.75c20.792 24.667 31.25 43.625 34.709 62.792 1.791 10 1.666 13.375-.875 25.25-5 23.333-15.584 43.208-34.542 64.833l-9.75 11.083v11.625c0 16.042-2.833 43.709-6 58.417-2.417 11.25-3.375 12.958-12.208 21.792-7.209 7.208-11.5 10.083-17.25 11.541-8.459 2.125-24.125 2.292-32.292.334" glyph-name="adjustments" horiz-adv-x="1000" unicode=""/><glyph d="M488.16 712.233c-67.417-10.208-121.375-30.75-176.834-67.292-26.25-17.291-41.458-29.583-62.333-50.375C186.785 532.691 145.66 454.4 131.45 370.65c-19.083-112.375 7.209-229.167 71.209-316.084 76.791-104.333 189.666-164.333 319.5-169.875 23.375-1 30 .5 30 6.792 0 4.083-7.917 8.625-30.834 17.667-44.208 17.5-86.916 41.916-119.333 68.25-17.542 14.208-47.208 44.083-61.25 61.583-43.625 54.417-76.917 126.208-86.958 187.5-1.834 11.167-2.459 29.875-2.459 73.125 0 56.125.167 58.917 4.334 79.167 8.375 40.666 21.375 77.583 39.833 113.083 47.125 90.542 124.5 157.875 227.833 198.167 30.042 11.708 33 13.25 33 17.416 0 8.625-29.125 10.709-68.166 4.792m101.5-62.708c-61.167-3.417-125.917-29.084-176.709-70.084-17.875-14.458-45.666-43.833-58.291-61.708-33.042-46.75-53.334-99.958-60.167-157.958-3.042-25.625-.958-75 4.167-100.375 9.25-45.542 19.25-73.959 23.583-66.959.625 1 2.125 20 3.375 42.167 1.208 22.167 3.375 48.125 4.792 57.625C351.618 434.108 465.368 545.94 605.2 562.44c22.75 2.709 100.584 1.042 119.459-2.541 51.291-9.667 82.541-22.334 125.625-50.834 12.666-8.416 23.541-14.833 24.083-14.25 1.667 1.667-4.542 17.584-11.542 29.542-14.875 25.375-47.833 59.792-73.375 76.708-56.833 37.584-120 52.917-199.791 48.459m10.75-138.917c-39.959-3.292-94.167-25.375-136-55.375-11.125-7.958-14.459-12.208-11.709-14.958.875-.875 9.417 1.75 20.459 6.25 22.25 9 48.458 16.083 74.041 20 22.584 3.458 74.625 3.958 98.292.958 66.958-8.5 117.167-26.375 193.792-68.917 14.916-8.291 27.541-14.625 28.041-14.125 1.459 1.459-4 11.084-13.541 23.834-36.792 49.333-87 82.208-149.959 98.166-19.166 4.834-70.166 6.875-103.416 4.167" glyph-name="akamai" horiz-adv-x="1000" unicode=""/><glyph d="M467.298 672.716c-62.584-2.667-136.75-31.042-195-74.625-18-13.458-55.625-51.417-70.334-70.875-72.75-96.417-94.875-216.583-61.25-332.583 11.459-39.625 33.375-83.334 58.667-117.042C259.673-2.742 348.048-54.992 449.798-70.534c25.875-3.958 75.625-4 100.916-.083 43.792 6.791 93.917 22.916 122.25 39.416 12.292 7.167 12.375 8.584.959 20.209-5.459 5.583-15.917 14.958-23.209 20.833-12.125 9.75-14 10.708-21.125 10.708-4.458 0-18.541-3.208-32.583-7.375C560.798 2.341 554.34.883 532.298-1.284 419.13-12.367 311.38 38.091 248.923 131.383c-21.25 31.75-39.334 73.875-46.917 109.25-4.458 20.875-4.417 101.041.042 121.583 6.75 30.875 22.708 70.375 39.375 97.458 36.5 59.334 96.833 107.125 163.208 129.292 41.5 13.833 56.875 14.875 243.917 16.042l154.583 1V65.258l-7.208 6.416C671.798 181.966 634.88 214.05 627.006 218.3l-5.292 2.875-9.333-8.25c-28.75-25.333-34.292-29.833-43.417-34.916-5.5-3.084-16.791-7.875-25.083-10.625-69.542-23.25-140.333 8.458-172.583 77.291-3.542 7.542-7.542 18.5-8.917 24.375-3.333 14.042-3.292 44.75.042 61.167 8.708 42.958 39.916 80.958 81.666 99.5 32.042 14.25 75.667 14.583 108.834.917 41.458-17.084 70.583-50.709 82.791-95.5 9.5-34.834 7.209-30.834 29.542-52.209 23.708-22.666 33.5-29.708 38.042-27.291 9.666 5.166 10.541 63.75 1.5 99.125-17.917 70.041-75.375 127.875-149.167 150.125-13.625 4.125-18.042 4.583-48.75 5.25-36.5.833-46.833-.292-69.333-7.334-41.792-13.125-84.084-43.583-110.75-79.75-15.875-21.5-30.334-55.208-35.375-82.583-2.959-15.792-2.584-66.375.583-80.75 9.083-41.167 29.625-78.208 60.125-108.333 26.292-26 49.667-40.334 86.292-52.917l20.541-7.042 35-.583c21.417-.333 38.667.167 44.5 1.292 17 3.375 40.042 11.875 63.667 23.583l23.125 11.5 11.042-9.542c19.041-16.541 47.291-41.375 115.166-101.416 80.042-70.75 98.042-86.292 103-88.917 4.584-2.417 13.375-.042 17.709 4.75 2.625 2.875 2.75 28.333 2.208 367.042-.375 200.166-1.208 365.541-1.958 367.541-.709 2.042-3.584 4.459-6.375 5.417-3.5 1.25-64.709 1.708-196.084 1.458-105.041-.166-196.25-.541-202.666-.833" glyph-name="algolia" horiz-adv-x="1000" unicode=""/><glyph d="M452.258 670.674c-70.542-13.625-118.25-44.583-144.959-94.125-12.75-23.625-20.875-55.125-17.625-68.125 1.875-7.458 19.292-11.917 66.709-17.167 28.041-3.125 41.125-2.666 45.875 1.625 1.75 1.584 7.708 12.084 13.208 23.334 11.625 23.666 19.833 33.208 35.25 40.958 9.458 4.792 11.958 5.292 32.375 6.208 21.542.959 22.417.875 32-3.5 17.167-7.833 28.25-21.541 33.458-41.291 3.167-12.125 4.25-61.667 1.375-64.5-.916-.959-14.041-3.25-29.166-5.167-87.792-11.167-118.875-18.417-152.417-35.542-39.917-20.375-64.708-46.416-81.75-85.75-11.5-26.541-13-35.208-13.083-76.25-.084-34.375.208-37.666 4.25-52.625 20.083-74.083 77.375-111.416 160.875-104.75 44.583 3.542 77.125 19.5 120.25 58.834l13.958 12.708 8.292-12.083c17.541-25.459 42.5-52.667 51.375-56 8.416-3.125 17.333 3.333 60.5 43.916 26.916 25.334 34.416 34.25 34.416 40.959 0 2.25-4.583 12.333-10.166 22.416-20.625 37.042-23.25 43.209-24.875 58.875-.792 7.917-2.292 53.042-3.25 100.25-2.417 115.459-4.667 172.459-7.375 188-4.417 25.209-18.417 52.584-35.75 69.917-17.042 17.042-43.667 32.875-67.75 40.333-34.292 10.584-94.417 14.667-126 8.542M554.09 362.632c-.042-17.208-3.25-64.291-5.167-76.25-5.625-34.416-28.833-71.833-51.833-83.5-14.708-7.458-40.042-8.208-52.875-1.583-7.875 4.083-18.917 16.292-24.208 26.708-5.834 11.584-8.875 41.917-6.209 62 4.625 34.625 32.584 62.542 74 73.834 13.875 3.791 42.625 7.958 56.709 8.208l9.583.167zM782.133 89.8c-14.75-2.583-26.417-6.167-40.542-12.542-11.208-5.041-21.333-12.833-19.833-15.291.583-.959 17.25-1.417 42.916-1.084 56.042.667 56.709.334 53.084-28.5-.959-7.875-5.167-25.583-9.292-39.333-9.167-30.5-10.542-37.5-7.583-37.5 3.166 0 18 15.875 25.666 27.5 12.792 19.333 24.709 53.792 26.875 77.5 1.709 18.708-2.333 23.542-22.833 27.375-19.667 3.667-34.625 4.25-48.458 1.875m-635.5-14.208c-1.709-2.75 1.625-7.125 16.083-20.959 45.125-43.291 120.125-85.666 188.042-106.291 58.958-17.917 112.125-24.292 175.833-21.084 73.542 3.667 155.5 27.792 220 64.792 21 12.083 41.5 26.875 44.25 31.958 2.625 4.959-2.125 9.875-9.542 9.875-3.125 0-23.041-5.666-44.333-12.625-106.167-34.625-135.875-39.708-232.875-39.75-66.917 0-75.292.625-118.833 9.209C309.34 5.632 260.799 22.632 179.174 62.882c-16 7.875-29.625 14.334-30.333 14.334-.667 0-1.667-.75-2.208-1.625" glyph-name="amazon" horiz-adv-x="1000" unicode=""/><glyph d="m361.1 690.458-4.416-4.083 3.458-8.833c1.917-4.875 8.292-17.917 14.167-28.959l10.667-20.166-10.792-8.75c-13.75-11.167-39.458-38.25-47.5-50.125-7.958-11.709-21.833-39.5-26.417-52.875-4.875-14.209-11.916-49.875-11.916-60.25v-8.542h423.333v9.25c0 16-8.958 52.958-18.5 76.417-11.375 27.958-37.583 61.5-66.583 85.25l-11.459 9.375 10 19.958c17.834 35.583 20 44.75 10.5 44.75-6.041 0-12.166-7.208-25.75-30.208-6.375-10.792-12.291-20.084-13.208-20.625s-11.208 2.083-22.917 5.916c-32.041 10.417-39.041 11.542-73.75 11.542-34.875 0-43.291-1.333-74.541-11.75-11.209-3.75-21.084-6.333-21.959-5.792s-7.083 10-13.791 21.042c-12.25 20.167-20.5 31.542-22.917 31.542-.708 0-3.292-1.834-5.708-4.084m53.833-131.708c7.917-4.083 11.75-10.375 11.75-19.208 0-14.209-11.708-22.834-24-17.667-6.583 2.75-12.667 11.25-12.667 17.708 0 6.5 5.5 15.209 11.75 18.584 6.875 3.666 7.167 3.666 13.167.583m189.667-6.625c9.166-9.917 5.916-23.792-7.042-29.958-7.667-3.625-13.167-2.417-19.417 4.25-9.166 9.833-7.75 21.833 3.542 29.458 7.958 5.375 15.667 4.125 22.917-3.75M197.1 431.75c-9.167-5.125-21.417-16.667-24.417-22.917-4.542-9.625-5.875-42.208-5.958-146.583l-.042-96.458 8.292-11.209c8.333-11.208 16.708-18.291 25.583-21.625 5.875-2.208 25.042-2.25 32.833-.083 7.5 2.083 23.625 16.375 27.375 24.208 4.417 9.334 5.834 44.75 5.875 148.292v93.333l-4.875 8.542c-5.958 10.375-17.625 20.917-26.208 23.75-3.5 1.125-12.375 2.458-19.708 2.917-10.917.708-14.334.333-18.75-2.167m568.458 1.042C759.101 430.833 742.517 416 738.892 409c-4.166-8.125-5.958-63.667-5-156.958.584-57.709 1.459-85.5 2.875-90.417 1.417-5.125 4.667-9.583 11.584-15.958 12.541-11.625 19.041-14.542 32.416-14.667 22.417-.167 38.042 9.833 49 31.375 3.542 7 3.584 7.75 3.542 120.833-.042 108.459-.167 114.167-3.208 120.834-4.125 9.083-16.667 21.583-25.667 25.583-8.375 3.667-31.208 5.542-38.875 3.167m-477.208-169.75V99.917l7.208-9.792c8.75-11.833 18.625-20.917 27.875-25.625 8.333-4.25 26.125-8.208 37-8.25l7.917-.042V-.542c0-64.083-.292-62.458 13.791-77.75 10.917-11.833 21.042-16.25 37.042-16.25s26.125 4.417 37.042 16.25C470.309-63 470.017-64.625 470.017-.542v56.75h60V-.542c0-64.083-.291-62.458 13.792-77.75 10.917-11.833 21.042-16.25 37.042-16.25s26.125 4.417 37.041 16.25C631.976-63 631.684-64.583 631.684-.792v56.5l12.917 1.042c30.166 2.5 44.416 10.875 61.791 36.417l5.292 7.791v325.25H288.351z" glyph-name="android" horiz-adv-x="1000" unicode=""/><glyph d="M486.48 676.353c-20.376-6.084-256.293-96.459-318.75-122.084-20-8.25-20.417-8.5-20.417-13.625 0-14.875 45.041-401.708 51.916-445.625l1.875-12.083 11-6.083c44.667-24.625 248.667-135.75 266.083-144.875l21.75-11.417 21.584 11.417c17.75 9.375 227 123.375 266 144.875l11 6.083 1.875 12.083c6.042 38.667 42.875 354.125 51.167 438.167l1.125 11.125-6.626 3.375c-9.375 4.75-53.791 22.417-146.25 58.042-140.291 54.041-194.624 74-200.75 73.708-1.416-.042-7.083-1.458-12.583-3.083m23.667-103.25c10.833-23.25 120.125-269.542 154.291-347.709 46.667-106.666 51.792-119.25 49.625-121.416-1.291-1.292-13.916-2.084-38.958-2.459l-37.083-.5-21.542 54-21.583 54-54.875 1.125c-30.208.584-73.042 1.084-95.208 1.084H404.52l-21.584-54.584-21.583-54.583-37.333-.458c-21.375-.25-37.959.208-38.875 1.125-.917.916-.75 4 .541 7.916 3.792 11.875 45.917 108.959 100.417 231.417 90.084 202.292 112.084 249.833 115 248.042.875-.542 4.959-8.209 9.042-17m-17.709-155.834c-13.416-28.041-53.458-127.375-53.458-132.5 0-3.25 11.375-3.833 64.709-3.25 36.666.375 54.041 1.125 55.333 2.417 1.375 1.375-.375 7.875-6.833 25-17.125 45.458-49.917 122.292-52.209 122.292-.5 0-3.916-6.292-7.541-13.959" glyph-name="angular" horiz-adv-x="1000" unicode=""/><glyph d="M413.333 670.667c-112.291-.667-214.833-2-227.833-2.917-21.042-1.458-24.667-2.167-32.208-6.292-11.959-6.5-33.959-30.291-44.542-48.125L100 598.542V154l8.167-12c16.333-24.042 39.125-46.875 58.708-58.792l9.375-5.708h174.583l75-75 75-75 75 74.833 75 74.792 85.25.917c83.709.875 85.417.958 92.5 4.583 25.375 12.875 44.542 31.458 62.917 61.083l8.5 13.75v440.417l-5.125 9.625c-10.583 19.833-31.667 42.75-54.25 58.875l-8.542 6.125-107.291-.292c-59-.125-199.167-.833-311.459-1.541m306.959-148.584c2.833-2.083 8.791-8.541 13.25-14.416L741.667 497v-42.042L734 446.167c-4.208-4.792-9.875-9.917-12.625-11.292-9.167-4.75-41.458-5.667-239.75-6.792l-197.5-1.125-9.708 10.667c-13.25 14.625-16.459 21.375-17.375 36.542-.917 15.291 1.375 24.333 8.458 33.625 7.583 9.916 13.25 11.166 59.5 13.166 38.625 1.709 209.333 4.084 328.833 4.625 61.125.25 61.334.25 66.459-3.5M476.417 316.292c13.541-15.459 16.083-21.875 16-40.459-.042-12.875-.75-17.125-3.625-22.666-4.959-9.417-13.792-16.709-24.167-19.875-10.792-3.292-64.208-5.584-133.25-5.709l-47.792-.083-8.541 9.583c-13 14.584-18.375 26.625-18.375 41.084 0 6.5.833 14.833 1.875 18.458 2.583 9.375 12.083 18.292 23 21.5 12 3.583 68.75 6.208 157.916 7.333l28.584.375z" glyph-name="annotation" horiz-adv-x="1000" unicode=""/><glyph d="M298.3 669.724c-8.5-2-17.167-9.708-21.417-19.041-4.291-9.375-18.125-57.292-54.791-190.167-13.417-48.583-26.334-92.292-28.667-97.167-4.583-9.5-7.042-11.75-53.542-48.666-14.166-11.25-27.416-23.167-29.916-26.917-8.959-13.542-3.959-35.083 10.458-45.125 11-7.625 31.667-9.958 154.083-17.333 37.625-2.292 77.709-2.792 224.167-2.834 120.583 0 188.875.625 210.833 2 17.875 1.084 50.875 3.125 73.334 4.5 75.708 4.667 89.791 7.292 101.166 19.042 5.459 5.583 10.5 17.417 10.5 24.5 0 11.667-9.541 22.708-40 46.208-29.333 22.709-43.208 34.625-46.625 40.125-4.166 6.709-10.708 28.625-40.25 135-44.041 158.667-45 161.584-56.291 170.292l-7.667 5.917-28.333-.875c-15.584-.5-44.084-2.792-63.334-5.084-19.25-2.25-52.458-6.25-73.833-8.791l-38.833-4.625-66.167 7.875c-103.542 12.375-123.083 13.958-134.875 11.166m-10.458-495.041c-5.875-.875-16.542-5.125-29.667-11.75-29.083-14.625-44.417-30.209-57.875-58.667-8.875-18.792-11.625-31.125-11.542-52.083.084-35.125 10.125-58.542 36.542-85.209 14.792-14.958 18.542-17.75 32.542-24.458 21.708-10.333 35.291-13.583 55.833-13.333 37.542.416 69.125 16.125 93.417 46.458 15.875 19.792 29.083 52.042 29.083 70.958v6.417h126.167l1-10.417c1.208-12.875 6.416-29.958 13.875-45.708 6.416-13.542 25.166-34.792 41-46.5 17.375-12.833 45.333-21.292 70.458-21.292 14.958-.041 18.583.625 35.625 6.375 23.375 7.917 34.042 14.875 52.458 34.25 15.209 15.959 20.667 25.292 28.667 49.125 3.875 11.667 4.458 15.875 4.375 33.542-.125 23.958-2.708 35.542-12.292 54.625-11.708 23.375-25.541 38.208-48.958 52.458-35.375 21.5-87.833 21.5-123.458-.083-21.084-12.75-39.75-32.75-51.459-55.042l-5.958-11.333H431.717l-9 15.417c-6.292 10.666-13.667 20.083-24.125 30.625-13.25 13.416-17.125 16.208-32.5 23.666-10.209 4.959-21.542 9.125-27.417 10.084-15.167 2.5-40.542 3.416-50.833 1.875" glyph-name="anonymous" horiz-adv-x="1000" unicode=""/><glyph d="M224.672 671.91c-8.833-1.917-21.125-6.292-30.833-11-14.084-6.833-18.209-9.875-32.167-23.917-18.125-18.208-25.167-30.458-31.75-55.166-4.833-18.125-5.167-45.25-.75-62.5 9.542-37.292 35.208-67.209 73.083-85.167l6.25-2.958v-195.75l-10.416-7.459c-21.667-15.541-48.042-46.416-57.042-66.708C116.922 106.66 121.84 48.577 154.84-1.34c8.625-13.083 32.208-36.208 46.708-45.833 14.333-9.5 30.583-16.667 50.292-22.084 12.125-3.375 17.958-3.916 41.041-3.916 23.875 0 28.584.5 41.709 4.25C373.965-57.59 406.673-33.34 429.34 1.41l4.625 7.083h195.833l2.833-7.083c6.417-16.042 25.625-39.625 42.542-52.167 23.625-17.583 59.25-26.708 87.458-22.416 47.625 7.208 85.792 39.958 102.917 88.333 2.458 6.958 3.458 15.333 4.125 35 .958 28.042-.375 35-10.708 56.125-12.25 25.042-44.334 51.542-72.125 59.542-23.084 6.666-55.125 6.083-77.375-1.417-26.875-9-52.084-29.75-65.209-53.625-3.458-6.292-8.083-13.875-10.25-16.875l-4-5.417h-171l-1 10.667c-1.333 14.208-6.625 34.417-12.958 49.5-2.833 6.792-5.25 13.25-5.417 14.333s14.667 17.584 32.959 36.667c44.583 46.458 241.541 249.042 252.958 260.167l9.083 8.833 18.167-1.5c30.333-2.542 51.583 1.75 73.375 14.875 19.917 12 38.458 37.333 44.958 61.458 3.834 14.25 3.917 39 .125 53.209-5.041 19.083-12.25 31.458-26.833 46.041-21.667 21.667-42.875 30.75-71.833 30.75-30.709 0-53.209-9.25-75.125-30.833-14.542-14.333-22.959-28.917-27.5-47.5-3.459-14.167-2.709-38.5 1.625-53.917l3.666-13.083-48.833-50.25a107176 107176 0 0 1-145.917-150.583L383.38 227.035l-10.375 6.458c-20.25 12.667-50.583 21.667-73.041 21.667h-8.125v176l7.875 3.833c32.125 15.584 54.833 39.459 67.583 71 5.333 13.25 5.375 13.5 5.375 42.5 0 32.625-1 37.292-12.667 60-11.958 23.167-30.041 40.834-53.875 52.625-24.166 11.917-56.458 16.209-81.458 10.792" glyph-name="api" horiz-adv-x="1000" unicode=""/><glyph d="M653.967 711.98c-51.042-12.75-94.209-42.916-122.542-85.666-19.292-29.125-27.625-53.917-29.417-87.709l-1.083-19.875 14.875 1c41.792 2.792 79.542 23.625 113.042 62.375 24.708 28.542 33.833 45.584 42.583 79.542 6.542 25.292 8.208 44.292 4.417 50.042-3.292 5.041-2.834 5.041-21.875.291M335.633 512.522c-34.375-3.375-72.041-21-106.166-49.542-65.917-55.208-94.5-148.833-78.042-255.625 11.042-71.708 36.25-138.166 76.875-202.75C262.758-50.27 312.55-100.81 342.675-111.56c4.375-1.542 15.167-3.209 24-3.709 19.208-1.041 29.5.959 71.125 13.875 43.208 13.375 50.208 14.5 85.875 13.584 29.792-.75 30.667-.875 52.792-7.709 58.75-18.041 62.916-19 82.5-19.166 15.958-.084 20.041.5 31.666 4.541 16.5 5.792 28.042 12.709 44.417 26.709C766.758-56.394 813.508 9.94 836.175 60.023c7.167 15.833 16.958 41 16.958 43.583 0 .25-5.791 3.917-12.875 8.25-42.333 25.709-71.458 58.125-87.791 97.792-17.75 43.125-16 102.625 4.208 144 12.292 25.208 32.625 49.292 58.167 68.875 19.666 15.167 19.583 12.792 1.125 30.875-26.625 26.083-50.625 40.917-83.625 51.75-24.75 8.083-38.959 9.667-78.875 8.708-38.584-.916-39.125-1.041-101.167-21.416-26.125-8.584-27.083-8.75-46.667-8.792l-20-.042-37.458 12.042c-20.625 6.625-43.125 13.083-50 14.375-16 3.042-45.375 4.208-62.542 2.5" glyph-name="apple" horiz-adv-x="1000" unicode=""/><glyph d="M342.484 547.054c-35.042-3.042-79.584-20.625-113.125-44.667-47.875-34.333-82.042-84.75-97.125-143.416-8.167-31.75-8.042-86.167.208-117.667 12.667-48.208 32.583-82.25 69.5-118.833 21.083-20.917 34.5-30.834 57.708-42.584 22.5-11.416 36.709-17.041 56.875-22.458 14.917-4 18.5-4.292 55.125-4.417 27.042-.083 42.792.584 50.834 2.167 17.041 3.375 42.708 12.042 61.25 20.708l16.25 7.625 13.75-6.416c16-7.459 38.125-15.375 56.083-20.167 25.833-6.792 79.708-7.208 107.292-.75 87.25 20.375 156.166 82.125 184.291 165.042 9.334 27.583 12.375 46.791 12.417 78.333.083 32.333-2.5 49.458-11.625 77.5-23.875 73.583-84.667 134.875-157.792 159.167-26.041 8.625-39.416 10.958-69.416 11.958-44.125 1.542-73.042-4-114.209-21.833l-20.916-9.042-16.209 7.167c-38.541 17.041-60.75 22.291-99.083 23.333-13.958.375-32.917.042-42.083-.75m65.208-46.792c50.208-7 104.708-41.291 132.833-83.541 21.834-32.834 32.167-59.917 34.75-91.125 3.209-39.084-.5-71.584-11.291-98.542-25.334-63.292-77.042-108.25-143.417-124.75-27.625-6.875-71.417-5.875-99.75 2.333-18.75 5.375-48 19.375-63.375 30.334-39 27.708-66.125 66.958-79.542 115.083-3.166 11.292-3.625 17.208-3.666 49.5-.084 33.208.291 38.083 3.833 51.667 4.542 17.541 16.833 44.416 28.083 61.375 10.25 15.458 32.917 39.083 48.959 51.083 23.541 17.542 53.458 30.75 80.958 35.708 15.875 2.875 53.917 3.334 71.625.875M380.11 380.887c-8.917-33.166-33.834-142.333-32.75-143.458.333-.333 4.75-1 9.833-1.542l9.208-.958 1.75 6.5c3.875 14.542 31.625 135.167 32.125 139.792.542 5 .5 5-8.958 5.5l-9.5.5zm-74.834-54.875c-15.208-16.833-15.333-17.333-7.75-26.833 3.5-4.375 9-10.75 12.25-14.208 5.75-6.125 6.167-6.25 18.042-6.25 6.917 0 12.167.708 12.167 1.666 0 .875-3.709 5.709-8.25 10.709-15.459 17.083-15.292 15.625-3.584 30.166 5.584 6.959 10.167 13.375 10.167 14.209 0 .875-5.208 1.583-11.542 1.583h-11.541zm103.042 9.209c0-1 4.5-6.75 10-12.75s10-12.209 10-13.834c0-3.125-9.833-16.291-17.292-23.125-2.416-2.208-4.375-4.666-4.375-5.416s5.959-1.375 13.292-1.375h13.292l10.666 12.541c5.917 6.875 11.084 14 11.584 15.792.583 2.375-2.459 6.958-11.084 16.583l-11.916 13.334-12.084.041c-7.666.042-12.083-.625-12.083-1.791" glyph-name="appwrite" horiz-adv-x="1000" unicode=""/><glyph d="M157.52 639.688c-6.834-4.75-18.876-15.125-26.793-23.042-19.583-19.625-26.583-33.75-27.75-55.875-2.25-43.333 16.542-74.25 61.667-101.375l12.917-7.75h642.041l11.292 5.916c31 16.292 56.792 47.292 64.417 77.417 2.333 9.25 2.416 12.75.75 23.75-2.334 15.25-6.792 29-12.875 39.333-5.834 9.959-27.25 31.334-39.75 39.75l-10 6.709-315 1.917c-173.25 1.041-322.542 1.916-331.75 1.916l-16.792-.042zm-8.25-423.583v-185.5l8.75-14.875c11.917-20.25 35.083-43.416 55.333-55.333l14.875-8.75h543.75l14.542 9.917c28.167 19.208 47.083 38.916 57.833 60.25l4.917 9.75v370.083h-700zm433.083 68.167 10.667-13.209-.75-18.583c-.625-16.417-1.208-19.5-5.125-26.167-4.875-8.375-14.333-17.375-20.75-19.833-8.167-3.083-46.833-5.083-87.958-4.542-47.584.625-47 .459-60 15.084-11.375 12.75-12.917 17.292-12.209 36.167.667 17.833 2.667 23.374 12.625 34.791l6.25 7.167 48.334 1.333c26.583.75 59.583 1.292 73.291 1.167l24.959-.167z" glyph-name="archive" horiz-adv-x="1000" unicode=""/><glyph d="M444.93 693.322c-34.374-2.208-73.29-13.875-113.666-34.083-42.375-21.208-72.583-41.792-100.333-68.333-54.75-52.334-84.083-97.334-107.042-164.042-14.291-41.5-19-67.083-20.791-112.375-2.25-56.833 6.166-103.875 28.375-159.208 21.791-54.125 45.541-89.917 87.583-131.959 36.417-36.458 60.208-53.583 105.917-76.333 36.375-18.125 54.583-25.458 79.208-31.917 32.167-8.416 55.083-10.458 108.625-9.583 45.667.708 47.75.917 67.958 5.833 121.417 29.792 219.5 104.125 271.375 205.625 10.125 19.792 27.042 61.25 33.584 82.25 6.375 20.542 8.291 34.167 10.333 72.834 4.292 82.666-2.208 121.458-31.458 187.958-40.292 91.625-109.75 160.958-203.917 203.5-37.667 17-74.208 26.708-112.417 29.833-22.208 1.834-75.083 1.834-103.333 0m82.833-204.416c15.084-10.334 15.5-13.042 20.584-132.209 1.458-34.375 3.166-66.125 3.791-70.541l1.125-8.042 30.834 26.917c16.958 14.791 35.333 29.833 40.833 33.458 9.583 6.292 10.5 6.542 23.792 6.542 11.916 0 15.125-.667 23.333-4.834 5.25-2.625 10.833-6.208 12.375-7.958 5.208-5.75 9.417-17.833 11.375-32.625l1.917-14.542-5-6.291c-10.584-13.25-156.667-156.875-166.959-164.084-19.708-13.916-28.25-14.208-47.625-1.625-18.208 11.792-96.5 88.209-146.833 143.334-19.458 21.25-21.792 25-24 38.333-3.125 18.875 4.083 35.458 19.667 45.375 7.083 4.458 9.083 4.917 22.208 4.917 21.333 0 23.208-1.167 72.208-44.084 13.625-11.958 25.25-21.583 25.834-21.416 2.375.75 3.416 14.25 5.166 68.833 2.917 91.25 5.25 116.708 11.959 131 6 12.792 15.083 16 41.416 14.625 13.417-.708 16.792-1.458 22-5.083" glyph-name="arrow-circle-down" horiz-adv-x="1000" unicode=""/><glyph d="M444.93 693.322c-34.374-2.208-73.29-13.875-113.666-34.083-42.375-21.208-72.583-41.792-100.333-68.333-54.75-52.334-84.083-97.334-107.042-164.042-14.291-41.5-19-67.083-20.791-112.375-2.25-56.833 6.166-103.875 28.375-159.208 21.791-54.125 45.541-89.917 87.583-131.959 36.417-36.458 60.208-53.583 105.917-76.333 36.375-18.125 54.583-25.458 79.208-31.917 32.167-8.416 55.083-10.458 108.625-9.583 45.667.708 47.75.917 67.958 5.833 121.417 29.792 219.5 104.125 271.375 205.625 10.125 19.792 27.042 61.25 33.584 82.25 6.375 20.542 8.291 34.167 10.333 72.834 4.292 82.666-2.208 121.458-31.458 187.958-40.292 91.625-109.75 160.958-203.917 203.5-37.667 17-74.208 26.708-112.417 29.833-22.208 1.834-75.083 1.834-103.333 0m75.958-202.041c8.042-3.375 18.25-12.584 20.834-18.75 1.166-2.792 2.583-12.917 3.166-22.542l1.084-17.458-34.209-38.334c-18.833-21.083-34.25-38.791-34.291-39.375-.084-1.916 15.625-3.041 66.625-4.75 65.75-2.208 112.25-4.875 121.625-6.916 17.833-3.917 24.458-12.542 27.041-35.167 2.084-18.375.542-26.042-7.458-36.542-7.25-9.458-17.292-14.25-34.542-16.416-7.791-1-50.708-2.25-95.416-2.834-44.667-.541-81.25-1.375-81.25-1.791 0-.417 9.25-10.584 20.541-22.625 27.709-29.542 40.292-44.875 45.5-55.542 3.959-8.042 4.292-10.333 3.667-23.583-.583-12.084-1.5-16.042-5.083-22.209-7.625-13-28.875-24.333-41.584-22.208-11.416 1.917-29.541 16-68.041 52.833-63 60.209-111.042 110.542-117.667 123.334-3.333 6.416-4.792 27.291-2.458 35.833 2.541 9.417 12.458 21.5 51.291 62.542 49.542 52.416 110.5 109.25 123 114.791 4.917 2.167 30.75.625 37.625-2.291" glyph-name="arrow-circle-left" horiz-adv-x="1000" unicode=""/><glyph d="M444.93 693.322c-34.374-2.208-73.29-13.875-113.666-34.083-42.375-21.208-72.583-41.792-100.333-68.333-54.75-52.334-84.083-97.334-107.042-164.042-14.291-41.5-19-67.083-20.791-112.375-2.25-56.833 6.166-103.875 28.375-159.208 21.791-54.125 45.541-89.917 87.583-131.959 36.417-36.458 60.208-53.583 105.917-76.333 36.375-18.125 54.583-25.458 79.208-31.917 32.167-8.416 55.083-10.458 108.625-9.583 45.667.708 47.75.917 67.958 5.833 121.417 29.792 219.5 104.125 271.375 205.625 10.125 19.792 27.042 61.25 33.584 82.25 6.375 20.542 8.291 34.167 10.333 72.834 4.292 82.666-2.208 121.458-31.458 187.958-40.292 91.625-109.75 160.958-203.917 203.5-37.667 17-74.208 26.708-112.417 29.833-22.208 1.834-75.083 1.834-103.333 0m78.083-203.916c12.709-7.459 33.125-26.209 84.584-77.584 50.791-50.791 71.708-73.375 81.416-88 4.542-6.916 5.084-9 5.042-20.333-.042-14.917-2.833-22.125-14.333-37.042-17.542-22.791-126.167-131.416-148.792-148.75-13.625-10.458-19.667-13.125-29.833-13.125-12.959 0-29.334 8.625-36.417 19.125-10.542 15.792-10.833 39.542-.625 54.917 5.542 8.333 29.5 35.667 49.583 56.583l13.792 14.375-10.25 1.042c-5.625.583-31.333 1.083-57.083 1.125-53.959.042-111.625 2.417-123.042 5.083-9.833 2.334-20 11.75-25.583 23.75-5.334 11.459-5.709 31.667-.75 41.917 5.375 11.042 14.583 18.875 24.458 20.75 11 2.083 57.875 4.667 124.75 6.833 53.917 1.75 64.708 2.584 63.833 5.042-.291.75-11.375 13.5-24.666 28.333-37.709 42.084-39.959 46.084-40 71.334 0 15.791 2.25 22.041 10.916 30.583 7.792 7.625 15.542 9.792 32.167 8.875 10.833-.583 15.417-1.625 20.833-4.833" glyph-name="arrow-circle-right" horiz-adv-x="1000" unicode=""/><glyph d="M444.93 693.322c-34.374-2.208-73.29-13.875-113.666-34.083-42.375-21.208-72.583-41.792-100.333-68.333-54.75-52.334-84.083-97.334-107.042-164.042-14.291-41.5-19-67.083-20.791-112.375-2.25-56.833 6.166-103.875 28.375-159.208 21.791-54.125 45.541-89.917 87.583-131.959 36.417-36.458 60.208-53.583 105.917-76.333 36.375-18.125 54.583-25.458 79.208-31.917 32.167-8.416 55.083-10.458 108.625-9.583 45.667.708 47.75.917 67.958 5.833 121.417 29.792 219.5 104.125 271.375 205.625 10.125 19.792 27.042 61.25 33.584 82.25 6.375 20.542 8.291 34.167 10.333 72.834 4.292 82.666-2.208 121.458-31.458 187.958-40.292 91.625-109.75 160.958-203.917 203.5-37.667 17-74.208 26.708-112.417 29.833-22.208 1.834-75.083 1.834-103.333 0m68.708-199.25c5.75-1.625 12.25-5.375 19.167-11.125C552.389 466.656 676.68 341.24 685.098 329.24c7.791-11.083 8.208-12.25 8.75-24.167 1.041-23.958-10.5-41.583-32.709-49.916l-9.75-3.625-9.458 3.5c-11.042 4.125-21.583 11.666-47.833 34.125-10.542 9-23.084 19.333-27.917 22.958-8.833 6.708-13.75 7.333-13.75 1.708 0-1.625-.75-13.083-1.625-25.458s-2.417-43.875-3.375-70c-2.208-57.917-4.25-80.375-8.167-89.125-5.208-11.583-16.541-20.708-30.416-24.417-6.917-1.833-8.75-1.666-18.292 1.792-12.417 4.542-23.125 11.458-27.125 17.583-5.333 8.125-7.667 36.125-11 131.667-1.917 55.792-2.875 67.5-5.583 67.458-1.042-.041-18.75-15.416-39.375-34.166l-37.459-34.125h-11.041c-25.667 0-38.5 5.958-46.084 21.458-4 8.125-4.625 11.333-4.625 24.375.042 13.375.542 15.958 4.792 23.625 7.25 13.083 27.583 35.667 71.833 79.708 52.167 51.875 93.25 89.167 102.542 93 3.292 1.375 15.375-.083 26.208-3.125" glyph-name="arrow-circle-up" horiz-adv-x="1000" unicode=""/><glyph d="M477.804 691.117c-8.709-5.084-13.417-9.209-20.292-17.875l-5-6.25-1.458-294.375c-.792-161.917-1.834-294.75-2.292-295.209-.458-.458-35.167 32.875-77.167 74.042-116.583 114.5-135.625 132.083-152.958 141.333-7.375 3.917-9.458 4.292-18.333 3.292-25.875-2.958-43.417-17.458-46.792-38.75-2.208-13.625 4.208-24.625 31.083-53.667 54-58.291 234.417-238.5 275.709-275.375 21.625-19.333 28.583-23.416 39.75-23.416 16.416 0 24.916 6.625 94 73.583 60.541 58.667 199.583 198.875 226.541 228.458 22.542 24.75 26.417 31.625 26.292 46.75-.167 24.542-16.167 39.125-47.792 43.5l-14.541 2-12.875-11.5c-22.209-19.75-82.042-77.5-152.625-147.25l-67.917-67.083v595l-9.542 8.75c-17.541 16-20.375 17.292-39.458 17.875-15.667.5-17.375.208-24.333-3.833" glyph-name="arrow-down" horiz-adv-x="1000" unicode=""/><glyph d="M286.667 647.333c-36.209-.75-74.25-2.083-84.542-3-24.375-2.208-33-6.541-45.542-22.791l-6.583-8.5V384.583l7.083-6.5c30.167-27.666 49.792-30.833 72.25-11.583 14.084 12.042 17.25 22.75 21.375 72.417 1.334 15.916 2.834 29.333 3.334 29.833 1.458 1.458 10.416-6.167 46.708-39.833 45-41.709 68.667-62.75 77.25-68.709 8.25-5.708 17.5-7.041 31.083-4.541 18.084 3.333 29.875 14.833 36 35.083 3.042 9.958 3.125 11.667.959 18.792-4.75 15.75-23.542 38-86.542 102.333l-37.75 38.5 37.042.958c40 1 53.208 3.125 65.666 10.417C445 573.792 452.125 598.958 441 620.208c-4.792 9.209-7.042 11.875-18.083 21.875l-7.834 7.084-31.291-.25c-17.209-.167-60.917-.875-97.125-1.584M660.125 644c-53.75-.917-80.5-1.958-83.708-3.292-2.584-1.041-7.417-4.958-10.75-8.625-18.584-20.583-16.584-46.083 5.166-65.958 6.5-5.958 11.292-8.792 17-10.125 12-2.792 37.334-5.083 58.834-5.292 10.541-.125 20.958-.708 23.125-1.333l4-1.083-4.834-5.834c-2.625-3.166-23.125-24.916-45.5-48.291-65.416-68.292-71.458-76.459-69.625-94.25 1.042-10.084 5.584-21.375 12.042-29.834 9.458-12.416 36.458-19.708 49.667-13.416 8 3.791 31.875 24.5 86.041 74.791 24.25 22.5 44.334 40.709 44.584 40.459s1.625-15.792 3.041-34.542c2.959-38.208 5.709-52.875 11.625-61.833 5-7.584 17.084-16.084 27.167-19.084 17.75-5.375 30.042-1.208 49.917 16.959l12.083 11v232.166l-14.542 14.625-14.541 14.625-40.875-.25c-22.5-.166-76.417-.875-119.917-1.583M180.083 242.917c-9.375-4.584-24.333-20.375-25.708-27.084-2.75-13.416-4.25-64.375-4.333-145.208l-.042-86 13.042-12.5c9.166-8.75 15.5-13.292 21.25-15.333 10.708-3.75 65.875-5.75 161.833-5.875l70.25-.084 10.167 11.25c17.583 19.459 22.875 35.084 17.833 52.459-3.042 10.375-11.625 20.5-21.458 25.166-8.417 4-18.834 5.625-54.584 8.625-31.541 2.625-40 3.75-40 5.334 0 1.416 8.042 10.333 44.25 49.125 54.334 58.208 71.25 78.583 75.375 90.875 4.542 13.5-10.5 39.791-27.125 47.375-9.25 4.25-30.833 4.208-40-.042-9.333-4.333-26.708-19.292-76.125-65.375-23.541-21.958-44.666-41.417-46.958-43.25l-4.208-3.292-.917 7.125c-.542 3.917-1.708 20.625-2.667 37.125-.916 16.5-2.5 33.542-3.5 37.875-3.708 16.459-17.166 27.5-39.333 32.167-14.625 3.125-20 3-27.042-.458m401.792 1.208c-2.208-.917-8.708-6.5-14.5-12.375-18.042-18.417-19.917-33.417-6.667-53.5 7.584-11.5 13.75-18.542 59.459-67.625C642 87.167 662.625 64.667 665.958 60.667l6.084-7.25-4.792-1.209c-2.625-.666-21.25-2.791-41.417-4.708-20.166-1.917-38.541-3.917-40.833-4.458-14.333-3.459-24.292-13.584-30-30.5-5.75-17.125-1.542-29.084 17.5-49.667l11.125-12.042 69.458.084c90.25.083 149.792 2.208 161.625 5.791 7 2.084 11.625 5.292 22.084 15.292L850-15.375l-.083 60.167c-.042 33.125-.709 83.083-1.542 111.041-1.792 61.459-2.375 64.292-16.708 78.625l-9.75 9.709-14.709-.084c-22.375-.166-29.25-1.791-37.958-8.916-4.208-3.459-8.792-8.542-10.25-11.292-4.042-7.833-6.875-24.583-9.917-58.875-1.541-17.417-3.291-32.208-3.916-32.875-1.334-1.5-15.125 10.583-52 45.375-63.25 59.75-72.709 66.542-94.542 67.667-7.042.375-14.583-.084-16.75-1.042" glyph-name="arrow-expand" horiz-adv-x="1000" unicode=""/><glyph d="M431.83 643.38c-6.709-1.5-34.75-28.167-140.25-133.042C187.162 406.463 118.037 335.88 108.83 323.713c-4.667-6.125-4.959-7.458-4.959-21.75 0-17.958-.208-17.583 21.417-41.583C167.62 213.42 408.579-24.87 425.37-36.412c9-6.167 10.75-6.708 22.792-7.25 16.375-.75 24.5 2.75 36.208 15.542 9.5 10.375 12.792 19.791 11.667 33.333-1.375 16.208-4.334 19.708-116.167 135.875-43.708 45.375-83.792 87.125-89.083 92.792l-9.667 10.25 10.542.916c15.708 1.417 111 2.584 354.708 4.417l219.167 1.667 10.375 11.208c19.875 21.583 24.166 35.417 16.916 54.708-4.958 13.25-13.708 21.584-25.041 23.875-11.292 2.25-105.917 4.667-264.75 6.834-164.5 2.166-303.375 5.041-313.042 6.416-4.292.625-7.792 1.959-7.792 3 0 1.042 30.375 33.584 67.5 72.375 128.292 134 138.125 144.667 143.667 155.542 4.583 9 4.542 21.208-.125 31.792-8.75 19.791-17.875 25.541-42.042 26.625-8.625.375-17.333.333-19.375-.125" glyph-name="arrow-left" horiz-adv-x="1000" unicode=""/><glyph d="M477.864 692.108c-7.291-3.458-17.333-13.667-21.875-22.333-3.875-7.375-3.833-5.5-6.208-320-1.125-146.417-2.5-266.667-3.083-267.25-1.875-1.834-4.959.791-49.084 41.958-68.958 64.375-79.25 72.292-93.916 72.292-24.959 0-47.459-17.334-50.75-39.125-1.375-9.209 3.5-22.459 13.083-35.459C282.698 99.525 438.531-55.975 468.698-80.1c21.125-16.875 34.416-18.917 52.541-8 18.084 10.875 195.834 187.458 215.459 214.04 8.833 11.959 10.583 16.167 10.583 25.167.042 15.333-9.792 32.833-21.917 39-6.666 3.375-24.583 6.542-37.5 6.583-6.125.042-8.333-1.458-27.5-18.458-11.458-10.167-40.916-37.958-65.416-61.75L550.364 73.15v594.958l-9.541 8.75c-17.542 16-20.375 17.292-39.459 17.875-13.75.417-18.041-.083-23.5-2.625" glyph-name="arrow-narrow-down" horiz-adv-x="1000" unicode=""/><glyph d="M326.607 542.638c-8.875-5.5-203.167-200.917-211.708-212.875-9.167-12.875-11.334-18.583-11.5-30.458s3.458-17.709 27.083-43.542c25.542-28 155.25-157.625 176.958-176.875 27.417-24.292 38.625-28.458 58.46-21.708 11.375 3.875 24.083 16.875 28.791 29.416 4.209 11.292 4.459 16.584 1.167 25.917-4.958 14-14.75 25.333-82.083 94.792l-42.417 43.75h595l11 12.083c12.958 14.167 19.25 25.792 19.25 35.458 0 8.625-4.167 21.292-9.833 29.875-7.542 11.417-10.459 12.292-47.75 14.167-39.084 1.958-177.709 4.417-379.917 6.708-144.708 1.667-180.833 2.667-180.833 4.959 0 .666 17.083 19.541 37.916 42 77.334 83.208 80.417 87.166 80.417 103.208 0 13.542-3.167 21.417-12.458 30.958-9.667 9.917-18.542 13.292-39.042 14.834-11.125.875-13.375.541-18.5-2.667" glyph-name="arrow-narrow-left" horiz-adv-x="1000" unicode=""/><glyph d="M626.96 542.935c-7.875-4.792-17.709-15.125-21-22.083-1.625-3.375-3.75-10.334-4.792-15.459-3.792-18.875-.833-23 70.917-98.333 27.041-28.417 48.541-52.292 47.791-53.083-1.708-1.709-102.5-3.75-305.916-6.084-176.25-2.041-266.209-4.208-282.375-6.791-12.709-2-17.959-6.042-24.834-19.042-3.791-7.125-4.416-10.417-4.416-22.708-.042-13.959.125-14.667 6.333-23.667 3.542-5.125 10.542-12.708 15.625-16.875l9.208-7.583h593.334l-33.792-34.542c-46.917-47.917-80.958-84.958-86.125-93.583-6.333-10.625-7.375-30.167-2.167-40.917 6.875-14.208 28.417-28.167 43.584-28.25 10.791-.042 21.875 7.083 47.833 30.625 26.375 23.958 113.5 111.125 157.167 157.292 27 28.541 34 37 39.083 47.041 6.167 12.125 6.208 12.334 3.667 18.792-5.25 13.417-16.459 27.083-54.834 66.875-52.833 54.792-139.5 140.333-153.958 151.917-14.833 11.875-22.792 15.833-36.042 18-14.833 2.416-18.208 2.208-24.291-1.542" glyph-name="arrow-narrow-right" horiz-adv-x="1000" unicode=""/><glyph d="M473.412 688.515c-16.209-10.708-200.334-195.125-210.334-210.708-12.875-20-13.833-26.333-6.416-42.083 9.25-19.542 25.125-30.459 44.125-30.375 17.333.083 27.875 8.25 99.583 77.291 26.333 25.292 48.125 46 48.5 46s1.167-123.208 1.792-273.75c.625-150.583 1.791-282.791 2.625-293.833 1.708-23.292 4.166-30.375 13.958-40.458 20.042-20.709 41.583-21.625 62.542-2.667 5.708 5.167 11.541 11.667 12.958 14.375 4.25 8.208 5.458 70.208 6.708 342.583.667 139.584 1.5 253.75 1.917 253.75.375 0 18.083-17 39.292-37.75 62.041-60.75 83-78.708 97.583-83.666 24.667-8.375 53.917 12.208 59.375 41.708 1.5 8.25-1.458 16.708-10.042 28.875-9.208 13-90 96.708-137.666 142.625-73.292 70.583-77.125 73.375-101.5 74.542l-14.167.666z" glyph-name="arrow-narrow-up" horiz-adv-x="1000" unicode=""/><glyph d="M519.915 634.578c-17.875-18.958-22.084-32.333-14.917-47.167 6.208-12.833 24.583-32.708 157.583-170.583l61.084-63.333-10.75-1.084c-5.917-.625-78.5-1.958-161.292-2.958-353.167-4.25-418-5.917-428.458-10.917-5.959-2.875-10.25-8.875-16.167-22.541-8.417-19.417-3.792-34.334 16.708-54.125l11.25-10.875h594.5l-58.5-58.75C556.915 77.66 517.706 35.62 507.623 17.036c-8.875-16.333-4.042-34.708 13.333-50.625 14.584-13.291 31.709-15.958 46.959-7.208 10.875 6.25 52.791 46.042 154.75 146.958C827.08 209.495 884.58 269.245 890.956 280.995c6.167 11.333 7.959 29.708 3.709 37.958-5.292 10.25-216.042 224-279.709 283.708-36.666 34.375-44 39.375-61.416 41.625-22.125 2.875-21.625 3-33.625-9.708" glyph-name="arrow-right" horiz-adv-x="1000" unicode=""/><glyph d="M480.848 592.73c-7.833-2.624-18.958-13-24.042-22.416l-4.333-8.083-1.875-139.167c-1-76.541-1.792-162.166-1.792-190.333 0-30.083-.625-51.542-1.583-52.125-.833-.5-22.042 18.083-47.083 41.333-56.292 52.334-66.292 61.042-77.875 68.084-8.084 4.875-10.542 5.541-20.417 5.416-9.458-.125-13.208-1.125-23.917-6.416-14.291-7.042-20.625-14.709-24.083-29.209-2.333-9.583-.708-16.916 6.458-29.333 8.625-14.917 182.25-190.833 209.334-212.083 13.5-10.584 18.625-12.625 31.666-12.625 7.5 0 13.459.958 16.709 2.666C537.18 18.564 709.806 188.981 734.64 222.231c15.541 20.833 16.583 39.458 3.208 56.958-7.625 10-17.042 14.042-37.25 16.042l-18.125 1.792-17.125-14.875c-20.333-17.709-50.625-46.417-87.792-83.125l-27.083-26.75V567.73l-9.542 8.75c-17.416 15.875-20.416 17.25-38.583 17.708-8.833.209-18.5-.458-21.5-1.458" glyph-name="arrow-sm-down" horiz-adv-x="1000" unicode=""/><glyph d="M324.976 442.826C268.685 386.2 219.226 335.2 215.101 329.45c-9.208-12.875-11.375-18.584-11.541-30.459s3.458-17.708 26.958-43.416C255.31 228.409 383.726 99.992 406.56 79.492c27.958-25.083 39.458-29.458 59.5-22.625 11.375 3.875 24.083 16.875 28.791 29.417 4.209 11.292 4.459 16.583 1.167 25.917-4.958 14-14.75 25.333-82.083 94.791l-42.417 43.75h395l11 12.084c13.333 14.625 17.75 23.208 18.75 36.791.958 12.584-1.833 19.959-11.583 30.542-8.667 9.417-12.875 11.542-25.417 12.833-14 1.459-119.375 4.084-243.333 6.084-115.667 1.875-132.334 2.625-133.667 6.083-1.083 2.833 5.75 10.833 44.5 52.25 52.583 56.208 65.125 70.792 68.667 79.958 4.166 10.792-.292 30.584-9.625 42.834-5.875 7.75-14.959 11.583-32.334 13.791-27.666 3.459-12.75 15.167-128.5-101.166" glyph-name="arrow-sm-left" horiz-adv-x="1000" unicode=""/><glyph d="M529.81 544.667c-20.958-12.958-30.583-31.625-27.25-52.875 1.834-11.458 5.292-15.625 64.792-77.667 49.167-51.208 57.625-60.416 56.542-61.5-1-.958-253.875-4.25-327.042-4.25h-66.458l-9.959-10.333c-12.375-12.875-16.541-20.917-17.583-34-1.125-13.708 3.75-24.25 18.667-40.25l11.208-12.083H627.81l-33.791-34.542c-47-48-81-84.958-86.167-93.625-6.25-10.542-7.417-31.417-2.25-41.5C511.56 70.334 531.02 57 546.352 54.125c7.75-1.416 18.583 3.5 32.917 15.084 29.041 23.458 179.583 174.083 202.375 202.458 21.125 26.333 20.958 36.208-1 61.708C747.227 372.21 601.935 516.71 578.727 534.21c-9.917 7.458-16.917 9.75-35.458 11.583-6.75.667-11.125.292-13.459-1.125" glyph-name="arrow-sm-right" horiz-adv-x="1000" unicode=""/><glyph d="M473.41 587.625C457.202 576.917 273.077 392.5 263.077 376.917c-12.875-20-13.834-26.334-6.417-42.084 9.25-19.541 25.125-30.458 44.125-30.375 16.917.084 26.458 7.334 95.125 72.5 23.833 22.584 45.417 42.584 47.917 44.375l4.583 3.292v-14.667c0-66.375 3.75-323.5 5-344.25 2.042-33.833 5.958-43.208 23.208-55.166 7.125-4.917 8.584-5.292 21.792-5.292 12.375 0 15.125.583 21.792 4.5 9.083 5.333 19.291 16.167 22.541 24 4.75 11.292 5.625 39.958 6.75 215.25.625 98.333 1.459 178.75 1.875 178.75.417 0 19.959-18.625 43.459-41.375 69.75-67.542 78.875-75.375 93.25-79.667 10.958-3.333 20.041-2.791 29.5 1.709 15.666 7.416 27.833 24.125 30.208 41.5 2.25 16.541-12.333 34.166-105.167 127.041-74.375 74.375-105.833 103.542-119.625 110.917-8.916 4.75-12.458 5.625-24.583 6.208l-14.167.667z" glyph-name="arrow-sm-up" horiz-adv-x="1000" unicode=""/><glyph d="M479.101 691.826c-14-9.083-40.667-34.292-127.292-120.375-94.958-94.333-179.666-181.083-190.541-195.208-9.625-12.5-11.792-21.25-8.25-33.375 3.666-12.667 12-24.584 21.083-30.125 9.875-6.042 27.375-10.542 35.208-9.084 10.334 1.959 29.542 19.709 158.25 146.25l81 79.584 1.125-274.459c.625-150.958 1.792-283.5 2.625-294.541 1.709-23.292 4.167-30.375 13.959-40.459 20.041-20.708 41.583-21.625 62.541-2.666 5.709 5.166 11.542 11.666 12.959 14.375 4 7.75 5.416 73.875 7.333 344.666.917 133.375 2.167 244.209 2.708 246.25.917 3.334 7.959-3.083 59.625-54.166 63.417-62.667 137.709-134.375 158.209-152.709l12.791-11.458 14.709.708c12.166.584 16 1.459 22.333 5.209 15.5 9.041 31 32.416 28.917 43.541-2.959 15.75-29.375 44.542-169.209 184.334-151.333 151.291-156.958 156.166-181.75 157.833-9.791.667-11.541.25-18.333-4.125" glyph-name="arrow-up" horiz-adv-x="1000" unicode=""/><glyph d="M369.626 720.743c-10.375-7.042-4.541 7.75-106.708-269.917-74.292-201.791-101.667-277.583-100.625-278.583.375-.375 12.958 3.792 27.958 9.25 71.084 25.708 116.625 36.417 173.875 40.792l24.875 1.875 14.834 45.833c30.125 93.375 74.5 226.667 77.083 231.667 8.375 16.208 30.708 14.916 39.042-2.25 1.875-3.917 11.75-32.584 21.916-63.667 55.542-170.167 68.792-209.292 71.334-210.583 1.5-.792 12.083-1.917 23.541-2.542 62.084-3.417 127.542-19.083 182.959-43.792 9.416-4.208 17.541-7.25 18-6.75 1 1-26.917 78.25-97.667 270.417-75.25 204.292-97.5 263.083-102.458 270.542-8.542 12.875 1.958 11.958-137.042 11.958H375.876zM331.835 178.66c-11.375-42.209-6.25-93.084 13.375-133.292 6.291-12.875 21.583-33.708 24.75-33.708.791 0 1.916 2.583 2.5 5.708 1.541 8.167 14.416 24.917 23.083 30 6.625 3.875 9.042 4.292 24.75 4.292 18.708 0 20.333-.542 31.125-10.625 7.25-6.834 9.625-15.875 12.833-48.5 5.167-52.334 10.417-66.834 32.792-90.167 12.5-13.042 30.5-27.375 34.333-27.375.834 0 .084 8.042-1.666 17.917-4.792 26.916-1.792 47.333 9.583 65.458 5 7.917 20.583 22.042 37.583 34 63.959 44.958 81.334 64.917 92.459 106.083 5.083 18.834 4.5 60.125-.959 65.584-.916.916-9.208-2.125-21.166-7.75-23.792-11.209-44.917-18.584-65.792-22.959-59.708-12.458-143.167-6.416-193.917 14.084-16.541 6.625-28.208 14.166-42.916 27.666l-11 10.042z" glyph-name="astro" horiz-adv-x="1000" unicode=""/><glyph d="M455.712 695.151c-2.291-.458-12.041-2.333-21.666-4.208-53.167-10.292-80.875-19.959-122.5-42.792-47.917-26.292-79.792-51.875-114.625-92-41.084-47.292-78.292-124.625-88.709-184.458-7-40.084-7.375-102.417-.833-136.125 12.458-64.167 43-132.417 79.167-176.959 26.916-33.125 77.291-78.541 107.916-97.25 32.209-19.625 87.834-42 127.209-51.125 14.916-3.458 53.625-5.666 100.875-5.708l39.375-.042 28.916 8.459c80.5 23.541 129.125 49.75 143.709 77.375 6.708 12.791 3.416 32.083-7.834 45.333-6.375 7.583-19.666 13.292-36.083 15.542l-14.083 1.958-20-8.667C572.629 8.11 526.296-2.89 480.712 2.693 375.754 15.526 295.671 66.109 247.38 150.15c-11.417 19.833-26.125 51.208-31.417 66.875-4.958 14.875-6.916 37.875-6.916 82.083 0 69.209 2.583 82.084 25.791 129.542 33.667 68.75 67.5 102.458 139.25 138.75 45.834 23.167 53.209 24.583 126.625 24.5 60.334-.125 73.625-1.583 97.292-10.75 27.5-10.667 59.583-28.417 84.833-47.042 41.417-30.5 81.25-87.625 99.584-142.791 7.833-23.625 9.75-36.125 11.083-72.75 1.167-32.625.375-36.709-9.542-47.959-16.958-19.25-44.458-21.75-61.333-5.625-8.75 8.375-12.542 17.75-25.125 61.834-12.542 43.833-18.375 59.708-27.75 75.291-18.875 31.334-51.875 59.834-91.542 79-25.375 12.292-27.708 12.625-84.958 12.084l-49.958-.459-16.625-9.416c-32.625-18.459-50.917-31.875-70.959-52.042-20.75-20.875-29.166-33.542-39.666-59.792-8.875-22-11.959-40.25-11.959-70.583-.041-30.625 2.334-45.292 10.5-65 18-43.375 44.542-75.708 84.125-102.625 32.375-22 80.334-33.583 120.625-29.125 25.084 2.75 41.334 7.5 63.875 18.667 20.875 10.291 42.792 25.666 64.417 45.166l12.708 11.459 13.959-6.542c36.75-17.208 81.208-22.75 113.916-14.167 40.542 10.625 85 51.292 101.417 92.709 7.375 18.625 9.542 53.708 6 97.375-2.208 27.208-4.917 40.333-13.875 66.916-37.708 111.792-109.042 193.542-212.208 243.25-51.792 24.959-99.209 34.792-175.5 36.292-18.792.375-36.042.292-38.334-.125m84.167-306.583c16-7.542 37.833-29.459 48.875-49.084l6.125-10.833-.167-20c-.291-40.917-4.666-51.5-32.333-78.167-21.958-21.125-38.75-27.458-68.042-25.541-26.166 1.708-40.416 9.083-62.958 32.625-20.958 21.833-23.75 30.208-23.917 72l-.083 20.916 7.458 12.084c4.084 6.625 10.209 15.416 13.542 19.541 6.875 8.334 23.5 22.042 32.208 26.5 7.667 3.917 24.917 5.542 50.125 4.625 17.459-.625 22.209-1.375 29.167-4.666" glyph-name="at-symbol" horiz-adv-x="1000" unicode=""/><glyph d="m294.48 673.096-36.791-.458-21.375-66.25c-34.917-108.167-49.209-153.959-49.209-157.917v-3.75l53.75-1.125c29.584-.625 83.292-.917 119.417-.625l65.708.542 30.5 94.166c35.375 109.292 42.25 129.042 44.042 127.209.75-.75 18-51.042 38.333-111.792l37-110.417h118c64.875 0 119.084.417 120.459.959 2.958 1.125 6.041-9.167-37.959 126.666l-32.958 101.834-155.083 1.083c-145.75 1.042-205.75 1.042-293.834-.125M178.814 425.721c-8.667-32-12.875-79.917-10.042-114.375 4.667-57.792 29.708-125.25 62.833-169.375 30.125-40.125 55.875-62.125 173-147.833 74.584-54.584 93.667-68.125 95.917-68.125 2.792 0 39.542 26.416 113.25 81.375 86.792 64.708 107.5 81 124.208 97.708 40.875 41 69.375 92.833 85.042 154.667 6.833 26.791 9.083 46.333 9.083 78.791 0 31.959-1.5 48.417-6.791 74.542-3.459 17.167-6.084 24.583-8.667 24.583-5.167 0-180.917-126-190.167-136.375-3.625-4.083-5.041.959 32.334-117.791 28-89.125 33.583-107.792 32.458-108.875-1.333-1.334-26.792 16.416-111.667 77.916-43.083 31.209-78.708 56.75-79.166 56.75-.459 0-30.459-21.5-66.667-47.75-79.458-57.625-121.417-87.208-123.625-87.208-2.917 0-2.167 2.417 45.917 154.042 12.5 39.333 22.5 71.708 22.291 71.916-4.291 3.917-191.166 138.084-193.083 138.584-2.167.583-3.5-2.084-6.458-13.167" glyph-name="auth0" horiz-adv-x="1000" unicode=""/><glyph glyph-name="authentik" horiz-adv-x="1000" unicode=""/><glyph d="M337.542 429.792 83.125 267.875l.458-127.958c.292-70.375 1.042-128.5 1.667-129.167.667-.625 5.542 1.292 10.833 4.25 12.709 7.167 138.125 86.375 339.459 214.5l163.166 103.833h53.667c29.5 0 90.958-.5 136.542-1.125l82.875-1.083 2.5-4.833c1.375-2.667 2.25-7.584 1.958-10.959-.458-5.833-1.5-6.833-19.667-18.958-10.541-7.042-60-38.042-109.875-68.875-132.291-81.833-136.916-84.958-143.958-98.167-3.542-6.583-3.667-8.875-4.167-63.916l-.5-57.084h318.792l-.917 280.417c-.5 154.25-1.375 283.875-1.958 288.125-.833 6.208-1.917 8.125-5.5 9.792-4.458 2.083-146.5 4.708-266.292 4.916l-50.208.084z" glyph-name="autodesk" horiz-adv-x="1000" unicode=""/><glyph d="M433.159 602.387c-28.875-.5-53.834-1.541-55.459-2.291-7.541-3.417-14.791-22.167-60.708-156.792-51.208-150.167-133.5-397.292-136.167-408.917-2.708-11.791-1.916-15.708 5.042-24.833 8.583-11.292 6.125-10.958 96.458-11.75l81.667-.708 8.125 5.625c9.5 6.5 8.5 4.333 30.958 67.333 8.5 23.792 16.709 45.708 18.25 48.75l2.834 5.5 11.541-10.5c6.375-5.792 31.875-29.25 56.709-52.167 24.791-22.916 50.208-46.125 56.416-51.583L560.16.096l26.083-1.417c14.333-.833 67.917-1.042 119-.542 77.25.75 93.75 1.334 97.667 3.375 6.875 3.542 14.791 13.209 17.083 20.834 2.208 7.416 4.833-.584-110.708 340.958-66.209 195.708-75.209 221.708-78.584 226.833-1.458 2.209-5.416 5.792-8.833 8l-6.208 3.959-65 .625c-35.75.333-88.625.208-117.5-.334m70-257c3.791-10.291 46.666-134.875 46.666-135.583 0-.375-22.5-.667-49.958-.667H449.91l23.125 67.917c12.708 37.375 23.625 69.208 24.291 70.833 1.792 4.334 3.625 3.542 5.834-2.5" glyph-name="azure" horiz-adv-x="1000" unicode=""/><glyph d="M590.146 597.333c-101.833-1.333-171.708-3.75-189.875-6.625-22.042-3.5-42.834-17.166-82.625-54.375-36.334-34-200.375-199.583-209.167-211.208l-7.5-9.833v-14.459c0-14.416.042-14.5 6.667-22.625C128.979 252.125 314.104 66.25 341.812 43.083c16.375-13.666 37.292-27.583 54.542-36.208L408.396.833H778.52l17.917 9c23.041 11.625 39.5 23.334 56.333 40.084 15.625 15.541 25.125 29 34.375 48.708 6.333 13.542 6.625 14.917 8.042 38.542.833 13.458 2 96.166 2.666 183.791l1.167 159.292-12.083 23.333c-6.667 12.875-15.834 28.334-20.375 34.417-13.459 17.958-38.709 36.375-74.834 54.542l-13.166 6.625-45.459-.292c-25-.125-89.333-.833-142.958-1.542M503.02 444.167c19.333-2.5 25.541-6.792 70.875-49l24.542-22.834 37.625 35.084c21.25 19.791 39.583 35.541 42.041 36.166 6.875 1.75 40.667-1.958 46.708-5.083 8.292-4.292 13.292-13.333 15.459-28.042 4.083-27.291.458-33.5-51.417-89.208l-19.042-20.417 21.542-22.916c28.584-30.334 41.208-45.709 46.5-56.542 3.917-8 4.292-10.375 3.625-22.667-.917-16.333-4.625-24.75-14.875-33.5-9.333-7.958-23.583-13.291-32.042-11.958-14.458 2.292-26.958 11.5-69.041 50.792l-27.125 25.333-24.792-23.25c-32.166-30.125-48.792-44.25-56.458-47.958-7.708-3.709-24.75-5-32.542-2.417-10.583 3.5-18.75 10.833-24.25 21.875-4.5 9-5.208 12.167-5.208 23.542 0 9.75.833 14.791 3.291 19.541 4.834 9.5 19.959 27.917 45.667 55.542l22.875 24.583-23.708 25.417c-28 30-41.209 46.292-46.459 57.042-3.291 6.875-3.666 9.458-2.75 20.25 1.209 14.291 4.375 21.208 15.25 33.541 8.75 9.834 10.125 10.125 33.709 7.084" glyph-name="backspace" horiz-adv-x="1000" unicode=""/><glyph d="M413.345 670.672c-46.416-23.708-54-26.875-119.166-49.542-18.792-6.583-38.292-14-43.334-16.583-20.75-10.542-47.541-38.875-57.541-60.75-2.959-6.417-11.542-29.667-19.084-51.667-8.666-25.125-19.041-51.166-27.958-70-30.792-65.25-37.25-79.708-39.167-88.041-1.166-4.917-2-20.709-2-36.959 0-28.041.084-28.458 5.417-41.916 3-7.459 15-32.584 26.75-55.834 19-37.75 22.75-46.666 35.167-83.916 16.916-50.834 21.666-61.459 34.625-77.5C217.387 25.13 242.97 1.63 253.637-4.828c3.292-1.958 27.792-10.917 54.5-19.875 45.583-15.292 51.417-17.708 96.042-40.083 28.375-14.25 51.875-24.959 58.333-26.584 16.625-4.208 66-4.166 78.333.042 5.042 1.75 31.292 14.125 58.334 27.542 45.625 22.666 52.208 25.416 91.666 38.25 23.375 7.625 47.042 16 52.625 18.625 17.042 8.041 52.25 42.708 63.167 62.166 3.125 5.625 12.917 31.584 21.708 57.709 14.417 42.791 17.75 50.875 33.75 81.666 24.667 47.459 28 54.542 30.5 65 2.959 12.459 3.125 67.625.209 80.334-1.209 5.25-10.084 25.5-19.709 45-27.041 54.625-32.75 68-45.708 106.458-21.708 64.5-22.542 66.083-47.958 90.125-22.375 21.167-32 26.167-84.292 43.75-46.625 15.708-58.083 20.458-107.167 44.417l-47.041 22.958-40.459.917-40.458.916zM665.97 442.755c9.167-1.958 18.792-9.458 23.25-18.166 1.792-3.542 4.084-13.417 5.167-22.167l1.958-15.833-4.666-8.042c-2.959-5.083-33.75-37.125-83.167-86.458-91.417-91.292-128.583-126.417-140.833-133.084-17.292-9.333-30.167-5.666-56.334 16.167-28.041 23.375-92.541 90.542-98.958 103.083-1.75 3.375-4.042 13.292-5.125 22.042l-1.917 15.875 4.584 7c10.666 16.083 20.583 21.375 40.166 21.417 21.334.083 29.084-4.917 76.417-49.167l24.333-22.75 67.917 66.583c77.917 76.375 104 100.875 111.167 104.542 5.375 2.75 20.166 2.333 36.041-1.042" glyph-name="badge-check" horiz-adv-x="1000" unicode=""/><glyph d="M444.93 693.322c-34.374-2.208-73.29-13.875-113.666-34.083-42.375-21.208-72.583-41.792-100.333-68.333-54.75-52.334-84.083-97.334-107.042-164.042-14.291-41.5-19-67.083-20.791-112.375-2.25-56.833 6.166-103.875 28.375-159.208 21.791-54.125 45.541-89.917 87.583-131.959 36.417-36.458 60.208-53.583 105.917-76.333 36.375-18.125 54.583-25.458 79.208-31.917 32.167-8.416 55.083-10.458 108.625-9.583 45.667.708 47.75.917 67.958 5.833 121.417 29.792 219.5 104.125 271.375 205.625 10.125 19.792 27.042 61.25 33.584 82.25 6.375 20.542 8.291 34.167 10.333 72.834 4.292 82.666-2.208 121.458-31.458 187.958-40.292 91.625-109.75 160.958-203.917 203.5-37.667 17-74.208 26.708-112.417 29.833-22.208 1.834-75.083 1.834-103.333 0m103.792-100c36.291-4.541 95.166-29.291 127.875-53.75 15.75-11.791 55.125-51.166 64.5-64.541 15.458-22.084 29.5-50.042 42.666-85l6-15.834.584-42.5c.333-23.375-.042-57.875-.875-76.666l-1.5-34.167-6.25-15c-8.584-20.667-33.459-71.792-35.5-73.042-1.625-1-417.125 411.167-417.125 413.792 0 1.417 34.416 17.958 58.708 28.25 25.625 10.833 44.75 16.667 59.833 18.25 20 2.125 84.917 2.208 101.084.208m-27.417-384.125 153-151.625-4.667-3.75c-6.791-5.458-49.625-24.791-73.875-33.375C560.223 7.864 551.89 6.49 506.306 5.49c-36.875-.75-41.708-.542-57.083 2.75-33.25 7.125-69.584 21.083-97.125 37.292-64.542 38-107.5 92.458-136.542 173.333l-6.458 18 .125 39.5c.041 21.708.708 53 1.458 69.5 1.208 27.708 1.708 31.042 6.458 43.667 6.959 18.5 16.5 40.75 27.667 64.5l9.333 19.833 57.084-56.5c31.375-31.083 125.916-124.75 210.083-208.167" glyph-name="ban" horiz-adv-x="1000" unicode=""/><glyph d="M362.262 695.354c-23.083-.625-36.208-1.625-38.583-2.958-6.125-3.5-17.125-17.25-18.875-23.583-2.458-8.792-2.083-22.042.833-30.334 3.042-8.583 10.375-18.5 29.917-40.417l14.583-16.375-1.083-36.958c-3.875-130.792-5.875-164.542-10.208-173-2.959-5.666-20.917-24.958-121.625-130.625-94.334-98.958-102.917-108.625-109.959-123.333-10.5-22-11.625-28.208-11.666-64.167v-32.5l6.291-15.75c11.667-29.041 35.584-58.916 60.459-75.416 6.375-4.209 19.75-12 29.75-17.292l18.166-9.583 231.834 1.125c227.166 1.083 332.375 2.874 351.333 6 30.167 4.916 66 31.666 89.417 66.625 17.625 26.375 23.083 48.874 21.208 87.833-1.083 23.083-3.083 32.292-10.792 49.333-8.458 18.75-10.208 20.75-129.291 146.292-40.417 42.625-82.292 86.833-93.042 98.25l-19.5 20.75v204.583l11.75 12.958c26.292 28.959 32.125 39.25 32.208 56.792.084 16.708-5.833 27.417-21.25 38.583l-6.541 4.75-135.167-.333c-74.333-.208-150.917-.75-170.167-1.25m187.5-208.333V370.437l5.167-14.25c8.708-24.125 19.875-40.958 54.583-82.458 18.584-22.25 23.375-29.208 21.5-31.083-.5-.542-16.208-2.708-34.833-4.833-40.542-4.667-46-5.584-88.917-15.334-31.791-7.208-34.166-7.5-50.833-6.5-31.083 1.875-71.25 9.042-95.458 17l-8 2.583 18.875 20.292c47.75 51.208 59.125 67.083 73.583 102.667l4.333 10.666v234.417h100z" glyph-name="beaker" horiz-adv-x="1000" unicode=""/><glyph d="M104.267 304.747V60.33l117.917 1.042c64.875.583 127.833 1.75 139.916 2.667 27.542 2 50.834 8.416 76.334 20.875 35.666 17.5 55.083 39.5 67.625 76.75 3.541 10.5 3.958 14.5 3.875 40-.084 33.25-1.625 40-14.375 64.458-12.834 24.708-25.584 36.625-56.417 52.917l-14.625 7.75 13.458 9.916c16.292 12.042 34.875 31.917 40.5 43.334 7.167 14.5 9.584 30.333 8.584 56.625-1.375 36.25-7.375 52.333-26.834 71.833-9.541 9.583-15.125 13.458-29.291 20.417-20.417 10.041-30.792 12.875-55.834 15.25-18.583 1.791-163.333 4.833-232.916 4.958l-37.917.042zm516.667 186.917v-24.167H817.6v48.333H620.934zm-321.667-27.5c53.958-1.875 57.333-2.667 70.375-16.334 7.875-8.25 9.542-11.166 11.292-19.5 1.125-5.416 1.75-16.875 1.375-25.791-.542-13.667-1.292-17.084-5.125-23.667-8.625-14.667-25.542-23.458-50.875-26.333-8-.917-37.25-1.667-64.959-1.709h-50.416v115l22.083-.041c12.125-.042 41.958-.75 66.25-1.625m401.667-43.375c-56-6.167-107.75-42.667-132.959-93.875-27.708-56.209-26.583-133.625 2.709-190.25 6.583-12.792 10.708-17.959 27.75-35 29.291-29.292 52.541-41.792 89.791-48.25 21.084-3.667 59.417-3.375 78.584.583 18.666 3.833 45.458 14.208 57.708 22.333 11.542 7.667 36.792 33.709 45.5 46.917 9.333 14.167 21.125 41.417 18.542 42.917-1.084.625-19.959 1.666-41.959 2.333l-39.958 1.167-3.167-4.834c-5.375-8.25-19.25-22-27.333-27.166-14.917-9.5-26.958-12.417-51.042-12.417-17.958 0-23.291.583-31.208 3.5-19.75 7.333-32.208 19.375-41.917 40.583-5.875 12.792-11.041 30.959-11.041 38.667v4.5l127.083.417 127.083.416.542 12.5c.667 15.667-2.458 52.5-5.542 66.084-6.416 27.791-25.5 61.875-46.666 83.208-23.292 23.5-53.167 39.667-81.25 43.875-16 2.417-47.334 3.333-61.25 1.792m40.333-75.125c12.792-2.709 27.125-10.875 35.667-20.375 11.708-13 25.458-44.834 20.708-47.792-4.583-2.792-88.5-4.25-130.625-2.25l-22.75 1.083v6.167c0 8.292 5.375 23.333 11.458 32.208 8.875 12.917 24.042 23.917 41 29.792 9.75 3.375 31.292 3.917 44.542 1.167m-407.833-69.875c11.916-.834 25.625-2.667 30.458-4.125 11.458-3.459 24.542-14.334 31.042-25.834 5.041-8.916 5.166-9.833 5.75-33.75.5-22.541.25-25.208-3.084-32.125-7.708-15.916-27.958-30.416-47.458-34-5.458-1-39.042-2.291-74.583-2.916l-64.625-1.084v137.667l50.416-1.167c27.709-.625 60.167-1.833 72.084-2.666" glyph-name="behance" horiz-adv-x="1000" unicode=""/><glyph d="M461.145 694.173c-28.75-3.042-53.833-10.584-85.083-25.542-34.875-16.708-62.834-36.25-88.334-61.792-32.208-32.208-54.333-67.708-69.75-112.041-13.708-39.375-15.75-61.334-17.208-184.542l-1.042-88.25-15.625-17.458c-18.583-20.834-25.916-31.417-29.75-43.25-5.375-16.375-1.75-26.334 16.834-46.584l12.625-13.708H813.27l8.458 6.708c12.042 9.5 21.375 22 24.542 32.917 4.875 16.833-.25 28.375-26.708 60-6.709 8-13.792 15.958-15.75 17.708-3.542 3.125-3.584 3.917-3.625 62.5 0 100.084-3.292 161.584-9.959 187.625-7.333 28.75-28.625 76-45.791 101.625-24.75 37.042-67.042 72.292-116.292 96.959-38.5 19.291-57.625 23.875-113.375 27.208-32.667 1.917-34.5 1.917-53.625-.083M350.228 45.589c0-7.333 6.917-32.541 13.292-48.666 13.75-34.542 50.375-70.042 86.833-84.167 22.792-8.833 60.917-11.125 83.25-5 35.625 9.792 75.542 39.292 93.75 69.333 8.167 13.417 22.875 58.5 22.875 70.084v3.833h-300z" glyph-name="bell" horiz-adv-x="1000" unicode=""/><glyph d="m218.829 671.765-82.25-.875-4.833-5.459c-5.834-6.5-6.084-10.875-2.375-42.875 6.375-54.708 74.125-510.833 90.958-612.208 10.417-62.708 13.792-72.625 27.042-79.875 5-2.708 19.083-2.958 216.166-3.375 227.042-.5 287.209.583 296.209 5.25 9.166 4.708 10.833 9.958 18.75 59.375 12.083 75.5 65.166 433.583 83.208 561.667 14.25 100.875 14.333 102.875 4.625 112.541l-5.292 5.25-24.166 1.084c-26.875 1.25-489.459.833-618.042-.5m394.583-251.042c1.375-1.333-33.583-235.583-35.708-239-.667-1.083-28-1.667-78-1.667h-77l-19.875 117.917c-10.958 64.875-20.208 119.208-20.625 120.75-.583 2.5 1.167 2.958 14.083 3.542 17.875.791 216.125-.584 217.125-1.542" glyph-name="bitBucket" horiz-adv-x="1000" unicode=""/><glyph d="M455.867 671.466c-144.375-18.5-262.209-113.709-308.084-248.917-32-94.375-29.625-179.208 7.375-265.542 20.417-47.583 47.042-85.791 86.75-124.5 30.667-29.875 45-38.166 59.5-34.333C311.783.882 319.95 9.049 321.117 17.882c1.666 12.292-3.584 20.792-34.25 55.5-46.584 52.667-74.167 103.792-85.084 157.584-12.791 63.125-5.291 126.75 21.459 181.583 41.083 84.292 123.75 149.375 212.708 167.375 61.417 12.458 132.792 6 184.125-16.583 53.458-23.5 93.833-57 125.167-103.875 23.125-34.584 42.208-79.084 48.291-112.75 3.5-19.209 3.084-95.167-.625-111.959-11.666-53.166-44.083-117.125-82.708-163.25-19.292-23.041-21.292-23.041-15.208.209 2.583 10.041 3.458 20.875 4.375 55.041l1.125 42.584-4.625 14.083c-16.792 51.25-45.084 81.458-89.209 95.208-11.166 3.5-15.666 3.917-42.5 3.875-35.875-.041-45.416-2.166-76.666-17.333l-20-9.667-1.25 5.792c-.709 3.167-1.917 34.375-2.667 69.333-1.583 72.167-1.833 73.709-15.833 93.292-8.25 11.625-16.209 17.833-29.625 23.208-7.75 3.125-12.167 3.584-33.125 3.542-20.667-.042-25.25-.542-31.667-3.458-15.125-6.834-32.625-24.625-41.042-41.625-6.791-13.875-5.208-27.709 4.167-36.209 6-5.416 14.667-4.041 31.708 5.042 14.375 7.625 15.459 7.958 17.584 5.125 3.125-4.208 4.041-26.125 5.958-144.5 2.208-137.167 4.458-199.958 7.542-212.292 8.083-32.25 36.541-64.25 71.375-80.25 26.916-12.333 37.041-14.5 72.708-15.375 48.833-1.166 71.458 3.875 118.083 26.375C715.283-10.868 770.825 35.882 813.7 98.382c57.333 83.667 75.292 190.667 48.958 291.667-15.041 57.625-43.708 113.042-78.875 152.542-59.291 66.541-136.625 110.708-218.833 124.958-7.833 1.375-31.458 3.208-52.5 4.125-42.708 1.833-40.583 1.833-56.583-.208m129.416-481.834c8.417-4.916 15.375-12.875 21.584-24.583 3.833-7.25 3.958-8.708 3.916-44.167-.083-41.041-1.166-47.166-12.125-68.333-7.333-14.167-22.958-30.333-34.5-35.708-11.041-5.167-29.375-7.084-48.5-5.125-26.208 2.75-38.208 9.125-48.958 26l-5.042 8v30.958c0 35.625 1.5 43.583 11.75 63.375 12.209 23.375 33.084 43.875 52.959 51.917 6.5 2.625 11.375 3.041 29.5 2.666 20.166-.458 22.25-.791 29.416-5" glyph-name="bitly" horiz-adv-x="1000" unicode=""/><glyph d="M195.106 575.854c-24.875-5.792-68.25-18.208-83.333-23.875l-10.834-4.083-.416-250.042-.417-250 23.958 8.084c13.167 4.458 35.834 11.25 50.417 15.166l26.458 7.084h70c60.584 0 72.25-.417 86.667-3.042 31.042-5.709 60.875-16.875 117.917-44.125l24.541-11.708 34.792 16.375c76.792 36.166 95.833 41.208 169.625 44.958 56.583 2.875 93.583-1.792 158.042-19.875 16.458-4.583 31.166-8.375 32.708-8.375 2.583 0 2.917 6.166 3.958 73.75.625 40.542.875 151.375.584 246.25l-.5 172.5-9.959 4.75c-5.458 2.583-26.833 10.333-47.5 17.167l-37.541 12.458-84.167-1.208-84.167-1.167-42.5-14.333-42.5-14.334-.333-24.166c-2.958-206.5-6.208-331.459-9.042-347.417-4-22.833-15.416-33.167-39.125-35.375-13.333-1.292-21 1.417-31.125 10.875-11 10.292-12.708 14.167-14.5 33.208-1.541 16.083-3.875 125.667-6 280.959l-1.125 79.708-5.041 3.083c-7.5 4.542-42.625 15.75-64.875 20.708-37 8.167-50.667 9.459-108.834 10.209l-55 .667z" glyph-name="book-open" horiz-adv-x="1000" unicode=""/><glyph d="M198.375 633.875c-17.208-14.042-34.958-34.583-43.167-50L150 574.083v-542.5l9.292-14.75c16.25-25.75 38.875-47.166 62.375-59l9.166-4.625 253.334 1.125C623.5-45 745-43.875 754.167-43.083c19.041 1.625 32.708 5.916 45.208 14.208C816.208-17.708 834.292 4 845.625 26.583L850 35.25v536.917l-4.417 8.666c-10.75 21.292-28.333 42.25-46.958 55.917l-11.125 8.167-286.667.958-286.666.917zM700 303.708v-200l-100 50-100 50-100-50-100-50v400h400z" glyph-name="bookmark-alt" horiz-adv-x="1000" unicode=""/><glyph d="M324.167 696.468c-7.459-.834-12.125-2.584-18.334-6.834-17.125-11.75-42.625-40.666-51.833-58.833l-4-7.833V-97.157l125 62.5 125 62.5 125-62.5 125-62.5v724.416l-10.25 14.042c-13 17.75-32.542 38.042-46 47.708l-10.417 7.459-174.583.541c-96 .334-179.083.084-184.583-.541" glyph-name="bookmark" horiz-adv-x="1000" unicode=""/><glyph d="M218.146 672.085c-15-1.75-42-18.709-59.417-37.375-12.167-13-19.958-25.459-27.917-44.834l-6-14.458V27.043l6.376-14.708c8.125-18.75 16.541-31.834 28.375-44.292 17.458-18.292 37.458-31.208 55.25-35.708 12.875-3.292 120.833-5.25 286.666-5.25 170.125-.042 268.375 1.916 283.167 5.583 18.75 4.625 32.5 13.208 51.958 32.542 16.458 16.333 18.333 18.916 28.125 38.333l10.458 20.833-.875 265c-.916 273.209-1.333 289.125-7.791 306.084-11.584 30.5-43.375 61.25-75.875 73.375l-10 3.708-276.667.333c-152.166.167-280.791-.208-285.833-.791m39.5-229.375c1.958-1.375 4.333-4.959 5.291-7.917 1.875-5.875 5.209-54.583 5.209-76.167 0-10.5.5-13.416 2.375-13.416 1.291 0 7.958 2.25 14.791 4.958 18.375 7.375 27.959 8.958 47.917 7.917 30.834-1.625 49.667-10.75 72.875-35.25l12.917-13.667 5.541 6.792c16.334 19.958 42.709 37.083 63.25 41.041 21.834 4.167 50.125.167 69.875-9.875 15.292-7.833 35.292-30.5 44.709-50.75 3.792-8.125 4.041-10.5 4.083-37.458v-28.792l-5.208-10.375c-14.25-28.291-35.042-47.5-61.125-56.541-9.417-3.25-14.417-3.834-32-3.75-18.042.041-22.417.625-32.667 4.333-18.375 6.583-37.708 21-51.666 38.417l-4.917 6.208-16.709-16.333c-19.208-18.75-33.291-27.5-50.125-31.084-22-4.625-48.833-1.958-66.416 6.625-11.584 5.667-30.542 22-39.75 34.292-15.583 20.708-18.417 42.333-18.208 139.125.083 36.667.916 73.375 1.791 81.625 1.458 13.042 2.208 15.417 6.083 18.75 5.25 4.5 16.542 5.167 22.084 1.292m371.417-87.292c2.791-1.708 12.541-11.208 21.666-21.167 34.25-37.333 33.167-36.333 36.833-34.333 1.834.958 8.459 7.625 14.75 14.792 18.167 20.708 36.25 38.875 41.459 41.583 6.792 3.625 14.875 1.625 21.917-5.375 11.041-11.083 10.374-12.417-32.25-68-15.959-20.75-17.084-22.708-15.167-26.292 1.125-2.166 12.042-17.25 24.25-33.5 22.75-30.25 28.958-40.208 28.958-46.166 0-1.875-3-6.417-6.667-10.084-5.291-5.291-7.875-6.666-12.666-6.666-9.25 0-14.292 4.041-36.042 28.833-19.75 22.542-28.458 31.167-31.292 31.167-.791 0-12.416-12.334-25.833-27.417-32.583-36.625-40.542-40.375-53.5-25.292-9.75 11.334-8.542 14 29.75 64.5 10.833 14.292 17.917 25.167 17.917 27.5 0 3.834-2.958 8.042-29.417 42.375-16.667 21.625-23.917 32.959-23.917 37.417 0 5.458 5.75 13.375 11.875 16.417 7.292 3.583 11.125 3.541 17.375-.292m-317.75-39.167c-14.125-3.791-33.083-20.791-38.958-34.875-3.125-7.458-3.416-33.666-.5-43.416 2.5-8.334 20.625-28.167 30.375-33.167 5.209-2.667 10.834-3.667 24.625-4.25 17.084-.708 18.334-.542 27.167 3.917 22.708 11.5 38.458 40.541 34.291 63.125-4.916 26.5-24.583 45.375-51.375 49.25-14 2.041-16.083 2-25.625-.584m180.042.792c-10.583-3.417-29.875-19.167-35.583-29.042-12.792-22.208-7.875-52.291 11.708-71.75 12.583-12.541 21.459-16 41.084-16.041 20.25 0 27.75 3.125 42.083 17.458 14.542 14.542 16.5 19.458 16.5 41.708-.042 22.375-2.083 27.209-18.042 42.167-8.375 7.792-13.083 10.833-19.708 12.708-10.959 3.042-32.334 4.625-38.042 2.792" glyph-name="box" horiz-adv-x="1000" unicode=""/><glyph d="M406.306 693.518c-19.584-4.833-40.417-18.125-61.375-39.041-31-30.959-40.875-57.209-45.25-120.292l-2-29.417-23.417-1.083c-12.875-.625-41.042-2.25-62.583-3.583-49.542-3.125-51.542-3.917-78.125-29.834-20.125-19.625-25.875-28.583-28.375-44.083-2.25-13.875-6.042-176.042-4.459-190.5l1.209-11.25 21.25-6.667c97.625-30.666 200.125-52.666 271.75-58.291 27.875-2.167 154.583-2.25 198.916-.084 35.959 1.75 69.375 6.375 122 16.917 58.125 11.667 147.792 35.667 170.292 45.625 15.042 6.667 14.542 2.625 12.25 99.875-2.042 86.542-3.125 103.542-7.375 115.5-6.875 19.292-33.917 46.458-54.125 54.375-13.542 5.292-44.125 8.5-114.792 12.042l-22.083 1.083v17.375c0 35.125-7.208 76.792-16.417 95.083-6.375 12.542-21.916 32.25-33.708 42.709-12.917 11.416-36.25 26.75-47.625 31.291-9.75 3.917-9.75 3.917-98.083 4.25-71.667.292-90.125-.083-97.875-2m170.416-100.375c12.25-13.916 14.667-19.583 18.209-43.041 1.791-11.834 3.75-26.959 4.375-33.625l1.125-12.084H400.014v3.75c0 6.584 4.833 45.209 6.833 54.667 2.5 11.958 5.292 17.083 15.459 28.625l8.458 9.625h138.958zm-62.125-246.916c8.75-1.709 19.334-8.834 23.75-16 2.834-4.584 3.334-8.334 3.334-24.834 0-27.541-3.375-33.916-23.125-43.583-12.375-6.083-23-6.208-35.209-.417-16.708 7.875-23.833 18-26.666 37.959-2 14.083-.417 22.708 5.791 31.666 6.042 8.709 9.5 11.625 17 14.292 7.125 2.542 24.375 3 35.125.917M100.764 103.185c-1.583-14.458.292-94.125 2.542-110.458 4.166-30.209 30.333-63.209 65.166-82.334l11-6h642.334l8.041 4.084c11.334 5.75 30.959 21.708 42.25 34.375 11.667 13.083 18.709 25.916 22 40.041 4.709 20.417 7.167 78.167 4.834 113.75l-1.125 16.375-7.625-1.125c-4.209-.625-29.042-5.958-55.167-11.875-153.333-34.75-178.083-38.75-260-42.291-71.583-3.042-167.708-1.167-211.5 4.208-57.125 6.958-142.958 24.208-228.458 45.917-14.209 3.583-27.459 6.541-29.459 6.541-3.291 0-3.791-1.166-4.833-11.208" glyph-name="briefcase" horiz-adv-x="1000" unicode=""/><glyph d="M460.906 622.148c-25-5.792-46.666-16.625-107.5-53.792-22.458-13.708-52.583-31.583-66.958-39.666-43.542-24.459-74.292-49.5-99.667-81.042-74.833-93-75.416-210.125-1.583-304.167 15.542-19.791 73.25-76.458 92.708-91.041 53.542-40.125 114.417-64 188-73.834 26.625-3.541 80-3.541 106.667 0C636.698-12.852 696.53 8.94 744.406 41.273c43.875 29.583 82.75 73 102.334 114.292 15.041 31.625 21.458 57.666 22.833 92.458 2.167 56.083-14.125 106.75-49.583 154.083-12.542 16.709-43.084 49.334-45.084 48.084-.875-.5-1.416-.334-1.166.416.666 2.292-38.834 39.459-53.709 50.459-13.916 10.333-24.708 16.916-65.791 40.125-11.917 6.708-37.792 22.083-57.5 34.166-47.125 28.792-61 36.209-79.875 42.5-18.792 6.292-40.167 7.917-55.959 4.292m41.042-23.667c15.583-3.541 40.625-16.583 88.125-45.916 21.542-13.292 50.417-30.417 64.167-38.084 54.666-30.333 83.25-53.458 109.291-88.375 69.292-92.791 59.375-208.041-25-291.625-50.041-49.583-120-82.625-200.041-94.5-27.167-4.041-88.709-4-115.084.042-143.083 22-249.208 110.167-267.666 222.417-3.834 23.25-2.375 58.875 3.25 80.75 17.541 67.875 62.375 121.958 135.583 163.708 12.667 7.208 45.458 26.583 72.875 43.083 82.917 49.834 100.583 56.209 134.5 48.5m-1.875-15.458c0-1.042 2.042-3.583 4.542-5.625 21.75-17.958 37.75-38 47.958-60.083 5.667-12.209 12.5-35.334 12.5-42.167 0-5.375 1.708-9 4.208-9 1.375 0 2.875 4.333 4.209 12.083 6.416 37.917-13.5 76.584-50.209 97.459-13.083 7.416-23.208 10.625-23.208 7.333m-24.083-1.708c-.5-.834 2.458-8.542 6.583-17.084 11.625-24.208 14.625-37.75 14.667-66.416.041-19.125-.667-26.709-3.292-36.417-2.792-10.167-2.958-12.375-1.042-13.125 2.709-1.042 5.209 2 12.042 14.667 6.875 12.75 10.125 26.375 10.125 42.291-.042 25.334-10.208 49.709-29.667 71.25-5.875 6.5-7.75 7.459-9.416 4.834m-19.959-1.959c-.458-1.291-1.583-9.583-2.541-18.375-3.792-35.583-17.917-65.666-43.209-91.958-13.458-14-12.416-17.375 2.959-9.625 15.666 7.917 34 26.25 41.208 41.25 9.958 20.708 12.708 47.333 7.333 71.125-1.666 7.5-4.5 11.167-5.75 7.583m-29.833-15.291a697 697 0 0 1-6.75-11.625c-16.5-29.125-51-57.667-82.208-68.084-14.167-4.708-14.167-8.208 0-8.208 29.5 0 59.916 16.75 76.333 42.125 7.875 12.167 16.25 32.125 17.583 42 1.167 8.375-1.083 10.125-4.958 3.792m-81.958-201c-10.75-5.042-18.542-12.709-24.542-24.042-3-5.667-3.708-9.792-3.75-21.333-.042-12.834.5-15.375 5.167-24.459l5.25-10.125-6.084-1.125c-9.708-1.791-25.125-10.875-29.541-17.375-14.209-20.916 11.833-43.458 50.166-43.458 38.459 0 64.375 22.542 50.084 43.542l-4.084 6 3.875 1.75c14.542 6.666 25.959 25.875 25.959 43.833 0 16.083-3.875 25.667-14.875 36.667s-20.584 14.875-36.667 14.875c-8.583 0-13.125-1.042-20.958-4.75m239.166 3.291c-13.375-4.375-25.25-15.125-31.458-28.541-5.667-12.292-5.833-28.709-.333-41.209 3.541-8 14.958-20.75 22.375-24.875 2.916-1.625 2.875-1.958-.417-7.375-7.208-11.791-2.75-24.75 11.542-33.5 26.25-16.083 74.166-11.208 88.583 9.042 5.375 7.5 5.25 18.542-.208 25.875-4.417 5.875-20.167 14.625-29.5 16.375-3.167.583-5.459 1.542-5.167 2.125 11.292 20.833 13.5 34.042 8.167 49.125-4.459 12.625-12.667 22.5-23.792 28.542-7.375 4-11.208 4.916-22.292 5.333-7.333.25-15.208-.167-17.5-.917m-223.208-16.375c16.542-9.791 9.583-35.5-9.625-35.5-18.042 0-26.958 20.167-14.167 32.042 7.5 7 15.792 8.167 23.792 3.458m231.583.292c6.042-3.125 9.959-10.333 9.959-18.375 0-4.708-1.292-7.375-5.667-11.75-4.833-4.833-6.833-5.667-13.5-5.667s-8.667.834-13.5 5.667c-4.625 4.625-5.667 6.917-5.667 12.625 0 8.667 2.125 12.667 8.875 16.792 6.375 3.875 12.917 4.125 19.5.708M420.448 238.315c-15.625-3.084-7.917-31.292 15-54.917 16.292-16.792 28.75-23.042 46.292-23.042 10.625-.041 14.166.75 23.708 5.25 15.667 7.459 32.333 24.375 40.125 40.709 8.333 17.625 8.917 21.708 3.917 27.541l-4.125 4.792-60.542.208c-33.333.125-62.292-.125-64.375-.541m84.625-35.084c4.125-2.041 9.75-5.583 12.5-7.833l5-4.167-6.667-5.833c-21.333-18.75-42.791-19.5-64.541-2.292l-6.792 5.375 7.75 7.042c4.292 3.875 10.958 8.167 14.833 9.625 10.125 3.708 28.375 2.792 37.917-1.917" glyph-name="bun-sh" horiz-adv-x="1000" unicode=""/><glyph d="M486.467 697.199c-7.625-2.167-19.167-11.208-24.417-19.125-13.292-20.042-10.5-40.833 7.958-59.292 9.625-9.625 17.667-12.208 34.459-11.166 8.916.583 13.791 1.875 19.416 5.166 14.917 8.75 21.584 20.584 21.792 38.667.167 14.708-5.917 28.583-15.333 35.042-10.459 7.166-35.125 13.166-43.875 10.708m150 0c-7.625-2.167-19.167-11.208-24.417-19.125-13.292-20.042-10.5-40.833 7.958-59.292 9.625-9.625 17.667-12.208 34.459-11.166 8.916.583 13.791 1.875 19.416 5.166 14.917 8.75 21.584 20.584 21.792 38.667.167 14.708-5.917 28.583-15.333 35.042-10.459 7.166-35.125 13.166-43.875 10.708m-313.125-6.917c-8.667-6.583-17.5-19-19.917-27.958-2.083-7.667.125-20.917 5.208-31.417 6.417-13.25 26.542-25.333 42.292-25.333 20.167 0 38.625 15.542 45.167 38 2.375 8.125 2.375 9.625-.167 17.542-4.208 13.125-13.042 25.458-21.292 29.708-5.666 2.917-10.791 3.833-25.458 4.417l-18.375.708zM485.05 544.7c-14.875-4.625-26.667-18.708-31.125-37.208-1.25-5.167-2.75-19.75-3.333-32.334l-1.042-22.916h-48.958l-1.084 27.916c-.583 15.375-1.541 30.417-2.125 33.417-1.333 6.583-18.583 24.625-26.875 28.083-8 3.375-28.333 4.667-36.791 2.334-7.792-2.084-18.375-10.625-23.5-19-4.375-7.167-8-21.959-10.25-41.917-3.167-28.5-3.167-28.5-27.292-39.208-18.208-8.042-31.083-17.125-45.292-31.875-12.75-13.167-17.208-20.5-21.291-34.792-3.25-11.375-6.042-38.75-6.042-59.083v-15.5l-7.333-1.834c-11.25-2.833-32.875-12.375-41.959-18.541-11.666-7.917-32.416-29.542-37.75-39.375-2.458-4.625-5.583-12.5-6.916-17.542-3.042-11.75-6.625-45.5-5.375-50.542.541-2.166 4.458-6.083 9-9 15.75-10.125 69.833-30.583 86.666-32.833 8.667-1.125 26.042 3.917 78.667 23l27.5 9.958 46.667.834 46.666.875 40.5-15.292c22.25-8.417 45.709-16.375 52.084-17.708 15.333-3.209 24.333-1.292 66.375 14.125 45.958 16.833 45.125 16.666 94.375 18.833l43.333 1.917 35-13.834c52.042-20.541 56.458-21.916 70.833-21.958 9.5-.042 16.417 1.208 28.709 5.167 32.541 10.416 61.541 23.958 69.5 32.416 3.75 3.959 3.875 4.959 2.833 18.834-4.417 57.625-30 90.208-84.75 108.041l-14.125 4.625-1.042 25.167c-1.666 40.792-6.916 61.042-20.083 77.75-13.292 16.875-41.625 35.208-67.042 43.292l-11.833 3.75-1.042 21.833c-1.125 24.875-5.375 44.125-11.916 54-2.542 3.792-8 8.583-13.042 11.375-7.958 4.375-10.083 4.792-25.458 4.792-15.542 0-17.292-.334-23.75-4.625-16.667-11-23.417-28.459-24.834-64.125l-.958-23.75h-49l-1.042 22.083c-2.25 48.5-12.333 65.625-41.916 71.083-12 2.25-13.125 2.209-22.542-.708M336.717 69.366c-6.959-1.084-14.042-3.584-61.667-21.709L229.217 30.2l-20.834 1.042c-40.083 2.041-70.958 8.833-98.333 21.625l-9.167 4.291-.458-60.333-.417-60.333 15.417-15.459 15.458-15.416L352.55-96.05c121.917-.917 286.583-1.667 365.958-1.708H862.8l10.208 8.833c21.167 18.333 23.459 23.875 25.459 61.667 1.666 31.708 2.083 81.791.666 83.166-.458.5-7.708-2.041-16.083-5.666-30.583-13.167-63.708-19.042-99.917-17.667-17.541.667-20.5 1.333-40.583 8.708-11.917 4.375-31.417 11.959-43.333 16.875l-21.667 8.917-25.833 1.083-25.834 1.042-15.833-6.958c-30.625-13.5-57.292-23.542-69.833-26.292-9.167-2-20.959-2.792-42.667-2.833l-30-.042-52.5 17.792c-51.833 17.541-64.792 20.625-78.333 18.5" glyph-name="cake" horiz-adv-x="1000" unicode=""/><glyph d="M300 695.635c-33.75-1.042-34.292-1.084-42.958-5.917-17.542-9.708-39.084-32.667-51-54.417l-6.042-11V-18.74l10.208-15.625c17.209-26.25 38.209-46.084 61-57.5l8.667-4.375h441.708l12.959 7.916c24 14.667 48.333 41.209 61.083 66.625L800-13.032v639.833l-8.208 12.25c-14.875 22.209-35.792 44.042-48.334 50.5-3.5 1.792-12.333 3.5-22.5 4.375-20.375 1.75-373 3.167-420.958 1.709m377.25-103.709c12.625-13.958 14.292-18.208 15.5-39.333l1.042-18.042-9.417-11c-5.167-6.041-12.25-13-15.708-15.416l-6.334-4.375H333.625l-9.458 10.416C309.5 530.301 307.5 535.051 307.5 553.76c0 14.666.375 16.5 5.208 25 7.417 13.083 14.334 16.291 39.875 18.458 18.584 1.583 158.667 4 267.709 4.625l47.75.25zm-313.5-196.333c8.125-1 10.625-2.208 16.292-7.708 10.5-10.25 13.291-17.625 13.291-35.084-.041-13.458-.5-15.708-5-23.583-11.25-19.542-37.833-27.583-57.791-17.417-3.584 1.834-10.459 6.875-15.209 11.125l-8.666 7.792v45.917l8.375 7.833c4.583 4.292 10.75 8.875 13.75 10.167 5.791 2.5 19.583 2.916 34.958.958m161.792-3.333c3.416-2.084 8.583-7.292 11.583-11.584 5.208-7.5 5.375-8.25 5.292-24.541-.042-14.875-.584-17.834-4.709-26.25-5.375-11-11.708-16.334-24-20.334-16.958-5.541-32.333-.916-49.625 14.792l-9.75 8.833 1.792 19.375c2.125 22.667 4.083 26.959 17.167 37.625l9 7.334 18.541-.75c15.667-.584 19.542-1.292 24.709-4.5m150 0c3.416-2.084 8.583-7.292 11.583-11.584 5.208-7.5 5.375-8.25 5.292-24.541-.042-14.875-.584-17.834-4.709-26.25-5.375-11-11.708-16.334-24-20.334-16.958-5.541-32.333-.916-49.625 14.792l-9.75 8.833 1.792 19.375c2.125 22.667 4.083 26.959 17.167 37.625l9 7.334 18.541-.75c15.667-.584 19.542-1.292 24.709-4.5M363.75 245.593c8.125-1 10.625-2.208 16.292-7.708 10.5-10.25 13.291-17.625 13.291-35.084-.041-13.458-.5-15.708-5-23.583-11.25-19.542-37.833-27.583-57.791-17.417-3.584 1.834-10.459 6.875-15.209 11.125l-8.666 7.792v45.917l8.375 7.833c4.583 4.292 10.75 8.875 13.75 10.167 5.791 2.5 19.583 2.916 34.958.958m162.208-4.208c3.709-2.709 8.959-7.959 11.667-11.667 4.625-6.458 4.875-7.625 4.792-23.583-.042-14.875-.584-17.834-4.709-26.25-5.375-11-11.708-16.334-24-20.334-16.958-5.541-32.333-.916-49.625 14.792l-9.75 8.833 1.792 19.375c2.125 22.625 4.083 26.959 17.083 37.542l8.917 7.292 18.542-.584c17.375-.5 18.916-.833 25.291-5.416m147.375 1.5c10.709-5.5 16.375-16.417 18.375-35.459 1.542-14.583 3.917-69 5.959-135.375l1.125-35.916-9-8.125c-11.5-10.417-23.917-18.334-32.792-21-5.625-1.709-8.375-1.709-14 0-8.833 2.625-21.25 10.583-32.583 20.833l-8.75 7.875v183.917l7.541 8.625c8.209 9.416 16.625 15.291 24.709 17.291 7.208 1.792 34.291-.083 39.416-2.666M363.75 95.593c8.125-1 10.625-2.208 16.292-7.708 10.5-10.25 13.291-17.625 13.291-35.084-.041-13.458-.5-15.708-5-23.583-11.25-19.542-37.833-27.583-57.791-17.417-3.584 1.834-10.459 6.875-15.209 11.125l-8.666 7.792v45.917l8.375 7.833c4.583 4.292 10.75 8.875 13.75 10.167 5.791 2.5 19.583 2.916 34.958.958m162.208-4.208c3.709-2.709 8.959-7.959 11.667-11.667 4.625-6.458 4.875-7.625 4.792-23.583-.042-14.875-.584-17.834-4.709-26.25-5.375-11-11.708-16.334-24-20.334-16.958-5.541-32.333-.916-49.625 14.792l-9.75 8.833 1.792 19.375c2.125 22.625 4.083 26.959 17.083 37.542l8.917 7.292 18.542-.584c17.375-.5 18.916-.833 25.291-5.416" glyph-name="calculator" horiz-adv-x="1000" unicode=""/><glyph d="M282.917 695.482c-11.542-4.291-20.209-12.5-26.834-25.5-2.625-5.125-4.708-20.541-6.958-50.958-1.292-17.083 2.042-15.083-31.625-18.792-31.167-3.416-48.167-6.916-58.917-12.166-18.666-9.084-41.333-32.542-53.541-55.417l-5.042-9.5V-19.726l10.208-15.625c17.209-26.25 38.209-46.083 61-57.5l8.667-4.375h641.667l12.333 7.5C855.958-76.35 879.125-53.184 892.5-31.1l7.5 12.333v541.875l-6.042 11.459c-6.541 12.458-22.541 32.208-34.166 42.166-16.459 14.084-36.417 19.667-87.459 24.375L750.5 603.15l-1 26.042c-1.292 35-3.292 42.041-15.083 53-12.167 11.333-22.084 14.75-38.375 13.166-21.875-2.083-34.209-10.666-39.917-27.666-3.625-10.834-6.125-31-6.125-49.209v-15.708H350l-.042 13.75c-.083 36.167-5.583 59.042-16.333 67.917-12.458 10.291-37.875 15.833-50.708 11.041M727.25 440.941c12.625-13.959 14.292-18.209 15.5-39.334l1.042-18.041-9.417-11c-5.167-6.042-12.25-13-15.708-15.417l-6.334-4.375H283.708l-9.625 10.375c-5.291 5.708-11.458 14.417-13.708 19.333-3.625 7.875-4 10.667-3.375 23.375 1.083 21.459 8.042 32.75 22.792 36.917 13.75 3.875 165.75 7.125 378 8.083l60.25.25z" glyph-name="calendar" horiz-adv-x="1000" unicode=""/><glyph d="M405.667 642.98c-10.542-3.709-24.209-13.75-64.792-47.584-33.458-27.875-42.125-33.875-52.167-36.25-3.416-.791-27.208-3.708-52.875-6.5-52.541-5.708-63.416-7.25-74.75-10.666-15.041-4.542-41.166-31.375-54-55.584L100 473.105V33.48l7.917-14.167C118.958-.479 145.208-26.729 165-37.77l14.167-7.917 204.166.042c250.209.041 428.667 2.25 441.125 5.5 24.25 6.291 55 35.375 71.125 67.333L900 35.855v438.583l-3.583 7.042c-16.25 31.958-47.75 59.666-73.375 64.541-4.875.959-28.959 3.584-53.5 5.875C745 554.188 721 556.813 716.25 557.73c-12.375 2.333-21.625 8.541-59 39.5-18.208 15.083-37.833 30.833-43.625 35-18.708 13.416-13.667 12.833-111.958 13.291-80.542.417-88.167.209-96-2.541m110.166-246.917c28.625-1.708 44.417-6.167 61.209-17.333 19.708-13.125 42.125-38.792 57-65.25l7.625-13.625v-91.459l-7.459-13.083c-14.916-26.167-39.666-54.333-59-67.167-11.875-7.875-31.083-15.333-46.875-18.125-16.291-2.958-46.291-2.916-60.125 0-40.875 8.667-80.666 42.125-100.791 84.792-8.792 18.708-10.75 28.792-10.75 55.792 0 26.75 2.083 43.458 7.083 57.041 10.417 28.25 46.125 65.417 77.125 80.292 20.708 9.958 28.958 10.833 74.958 8.125" glyph-name="camera" horiz-adv-x="1000" unicode=""/><glyph d="M201.708 596.462c-30.75-.917-34.833-1.417-40.833-4.667-17.375-9.416-43.667-36.875-55.208-57.708l-4.792-8.667-.458-121.666-.459-121.667 7.459-13.042c13.375-23.375 33.083-44.5 49.291-52.791 7.709-3.917 36-13.334 40.084-13.334 3.208 0 3.25 2.584 3.25 150v150h207.25c228.708 0 286.75.875 290.291 4.459 3.042 3-.25 14.75-9.416 33.583-8.084 16.667-22.75 32.917-41.625 46.25l-12.917 9.083-198.875.625c-109.375.334-214.25.125-233.042-.458m336.667-198.458-169.167-.959-7.75-4.541c-17.333-10.125-38.625-31.959-53.291-54.584l-8.125-12.5V82.087l7.916-14.167C319 48.13 345.25 21.88 365.042 10.837l14.166-7.917h445.25l12.375 8.5c20.042 13.792 43.5 37.375 56.459 56.75l6.75 10.125L900 197.712c0 65.667-.708 122.208-1.5 125.708-3.708 16-28.625 45.667-55 65.459l-14.292 10.708-60.833-.333c-33.458-.167-136.958-.709-230-1.25m105.75-110.084c12.75-7.625 31.542-26.041 42.5-41.666l8.75-12.5-.708-32.042L694 169.67l-6.583-9.541c-9.125-13.292-37.625-41.209-46.375-45.459-12.042-5.833-30.042-8.875-46.125-7.791-27.584 1.875-49.042 12.166-64.917 31.25-15.667 18.833-20.542 30.541-23.083 55.375-3.417 33.375 4.041 54.125 28.083 78 15 14.875 21.75 19.458 31.708 21.583 3.209.667 19.75 1.083 36.75.958l30.875-.291z" glyph-name="cash" horiz-adv-x="1000" unicode=""/><glyph d="M773.166 645.792c-19.708-.625-39.041-2.042-42.958-3.125-4.958-1.375-10.667-5.334-18.75-12.959l-11.625-10.958V-11.958l6.083-7.792c3.375-4.333 11.375-12.333 17.834-17.792L735.5-47.5h130.79l12.167 13.375c19.75 21.667 18.125 13.208 19.792 102.875.791 42.833 1.458 184.042 1.5 313.708l.083 235.792-14.542 14.625-14.54 14.625-30.875-.292c-17-.125-47-.791-66.709-1.416M474.083 495.667c-40.708-1.417-46.458-2.459-57.708-10.75-3.125-2.334-8.125-7.292-11.125-11.042l-5.417-6.833V-13.417l16.5-16.416 16.5-16.459 65.917.792 65.916.75 7.042 4.875c3.875 2.667 11.792 10.417 17.583 17.208l10.542 12.334v478.75l-14.625 14.541-14.625 14.542-29.125-.25c-16-.167-46.333-.875-67.375-1.583m-324.25-201.459c-16.583-.833-22.208-1.75-27.5-4.541-8.125-4.292-15-11.334-17.458-17.875-3.542-9.334-5.417-80.417-4.459-169.292.5-48.125 1.709-93.75 2.667-101.375C105.79-20 114.375-33.667 129.5-41.125c7.666-3.792 9-3.875 68.75-4.458 50.625-.459 61.916-.125 66.666 1.875 3.167 1.333 12.417 8.708 20.584 16.375l14.875 13.958-1.125 117.542c-1.125 121.791-2.667 158.291-6.917 167.25-1.375 2.875-5.875 9.541-10.042 14.833l-7.5 9.583-52.083-.291c-28.625-.125-61.417-.75-72.875-1.334" glyph-name="chart-bar" horiz-adv-x="1000" unicode=""/><glyph d="M467.69 695.71c-93.79-14.419-157.04-39.21-211.457-82.835-18.041-14.5-54.666-50.125-68.833-67.042-35.958-42.875-62.958-99.625-80.833-169.875-4.459-17.708-4.5-18.083-4.459-76.125l.084-58.333 6.25-24.584C131.317 127.083 168.025 63.333 229.483 6.75 298.941-57.166 390.191-94.791 485.4-98.708c78.5-3.25 162.958 20.667 229.167 64.834 47.25 31.583 104.083 92.125 130.875 139.5 26.416 46.666 52.458 137.583 52.458 183.166v10.209h-400v400l-5.417-.167c-3-.083-14.125-1.5-24.791-3.125m132.5-15.333c-.667-1.084-1.542-64.917-1.959-141.834l-.791-139.875 141.75.584c77.958.333 142.291 1.125 143 1.791 3.125 3.167-20.5 59.167-40.459 95.834-37.75 69.291-108.708 130.958-195.083 169.583-17.667 7.875-39.708 15.875-43.833 15.875-.75 0-1.917-.875-2.625-1.958" glyph-name="chart-pie" horiz-adv-x="1000" unicode=""/><glyph d="M198.375 633.875c-17.208-14.042-34.958-34.583-43.167-50L150 574.083v-542.5l9.292-14.75c16.25-25.75 38.875-47.166 62.375-59l9.166-4.625 253.334 1.125C623.5-45 745-43.875 754.167-43.083c19.041 1.625 32.708 5.916 45.208 14.208C816.208-17.708 834.292 4 845.625 26.583L850 35.25v536.917l-4.417 8.666c-10.75 21.292-28.333 42.25-46.958 55.917l-11.125 8.167-286.667.958-286.666.917zm474.25-140.625c2.833-1.458 7.792-5.583 11.042-9.208 5.041-5.584 6.041-8.084 6.958-17.167 1.583-15.833 4.042-105.542 6.208-224.792l1.875-105.833-8.875-8.167c-31.166-28.666-47.791-28.708-79.458-.25l-8.708 7.834v335.666l7.916 7.625c9.625 9.209 18.417 15.75 22.917 17 6.875 1.875 34.917 0 40.125-2.708M517.75 393.792c3.833-1.709 11.375-6.084 16.792-9.75l9.791-6.667 2.084-120.583 2.041-120.584L538 126.583c-11.458-10.458-30.75-21.208-38.083-21.208-9.584 0-26.667 10.042-42 24.708l-6.25 5.959v234.083l4.208 5c6.833 8.125 20.5 18.875 27.125 21.333 7.833 2.917 25.083 1.584 34.75-2.666M375.458 240.833c3.875-2.833 9.292-7.875 12.042-11.25l5-6.166v-44.459c0-49.583-.042-49.833-11.875-60.208-8.292-7.292-15.5-10.083-28.75-11.208-17.125-1.417-30.167 5.541-40.417 21.5l-5.416 8.458-.709 41.833-.708 41.875 5.625 6.959c12.958 16.166 19.833 19.25 41.042 18.416 15.916-.625 17.583-1 24.166-5.75" glyph-name="chart-square-bar" horiz-adv-x="1000" unicode=""/><glyph d="M174.458 671.05c-14.833-2.04-38.666-21.374-57.916-47-16.792-22.332-15.167-7.207-15.709-147.082l-.458-123 10.375-15.334c15.5-22.916 36.167-43.041 51.5-50.208 16.375-7.667 30.375-9.292 90.292-10.5l47.916-1V126.593l75.417 75.416 75.417 75.417 28.333.042c35.458.083 78.792 2.5 90.833 5.041 24.334 5.167 53.834 29.625 71.25 59.084l8.75 14.791v120.584c0 119.875-.041 120.625-3.541 127.625-9.375 18.416-34.084 45.75-53.084 58.75l-11.208 7.666-199.833.584c-109.917.333-203.667.083-208.334-.542m575.334-221.375c-3.667-90.167-6.625-133.458-10.292-151.167-5.708-27.333-30.083-61.958-61.083-86.875-32.667-26.208-55.5-31.625-142.125-33.625l-43.334-1-5.583-5.208c-3.042-2.875-22.75-22.958-43.75-44.625l-38.25-39.417 14.292-5.166 14.291-5.167h117.334l74.583-74.583 74.583-74.584V77.426h32.084c17.666.042 42.583.792 55.416 1.667 45.875 3.25 52.209 5.958 80.959 34.833 15.583 15.625 22.208 23.583 25.833 31l4.875 10v122.5c0 117.083-.125 122.75-3.167 128.333-16.666 30.792-45.125 56.084-70.166 62.375-10.125 2.542-39.459 6.542-62.667 8.542l-12.708 1.083z" glyph-name="chat-alt-2" horiz-adv-x="1000" unicode=""/><glyph d="M413.333 695.688c-112.291-.667-214.833-2-227.833-2.917-21.042-1.459-24.667-2.167-32.208-6.292-11.959-6.5-33.959-30.292-44.542-48.125L100 623.562V178.938l10.333-15.292c15.459-22.833 36.167-42.958 51.459-50.125 16.375-7.667 30.375-9.292 90.291-10.5l47.917-1V-97.521L425 2.521l124.958 100h275.209L838 111.937c25 18.417 48.75 44.167 58.458 63.417l3.542 7.042v440.5l-5.125 9.625c-10.583 19.833-31.667 42.75-54.25 58.875l-8.542 6.125-107.291-.292c-59-.125-199.167-.833-311.459-1.542M350 402.522v-50H250v100h100zm200 0v-50H450v100h100zm200 0v-50H650v100h100z" glyph-name="chat-alt" horiz-adv-x="1000" unicode=""/><glyph d="M415.447 642.126c-36.458-3.584-98.583-28.709-148.458-60-30.875-19.417-43.167-29.25-69.958-55.959-21.167-21.125-29.375-30.666-39.417-45.833-28.417-43-48.25-93.542-53-134.833-2.167-18.792-2.125-67.334.042-85.209 3.75-30.666 13.083-58.083 39.958-117.458 9.25-20.375 13.583-31.958 13.583-36.125-.041-3.542-5.458-20.5-12.833-40-41.958-111.042-40.917-108.042-36.583-108.042 3.583 0 53.625 11.042 127.625 28.125L294.03.126l47.375-15.542c78.208-25.708 94.5-28.375 167.875-27.167 40.291.667 53.041 1.459 68.666 4.292 119.5 21.625 234.042 101.708 283.375 198.083 13.959 27.209 28.834 71.542 33.5 99.709 1.292 7.875 2.209 26.625 2.167 45.833 0 29.625-.417 34.25-4.625 52.5-11.583 49.792-32.542 99-54 126.708-28.542 36.875-65.333 72.334-96.25 92.75-17.125 11.334-69.375 38.042-91.667 46.917-8.25 3.292-24.083 8.542-35.208 11.708l-20.208 5.75-83.125.875c-45.709.5-89.125.292-96.459-.416m-65.833-338.459v-50h-100v100h100zm200 0v-50h-100v100h100zm200 0v-50h-100v100h100z" glyph-name="chat" horiz-adv-x="1000" unicode=""/><glyph d="M444.93 693.322c-34.374-2.208-73.29-13.875-113.666-34.083-42.375-21.208-72.583-41.792-100.333-68.333-54.75-52.334-84.083-97.334-107.042-164.042-14.291-41.5-19-67.083-20.791-112.375-2.25-56.833 6.166-103.875 28.375-159.208 21.791-54.125 45.541-89.917 87.583-131.959 36.417-36.458 60.208-53.583 105.917-76.333 36.375-18.125 54.583-25.458 79.208-31.917 32.167-8.416 55.083-10.458 108.625-9.583 45.667.708 47.75.917 67.958 5.833 121.417 29.792 219.5 104.125 271.375 205.625 10.125 19.792 27.042 61.25 33.584 82.25 6.375 20.542 8.291 34.167 10.333 72.834 4.292 82.666-2.208 121.458-31.458 187.958-40.292 91.625-109.75 160.958-203.917 203.5-37.667 17-74.208 26.708-112.417 29.833-22.208 1.834-75.083 1.834-103.333 0m220.958-250.166c9.167-1.959 18.792-9.459 23.25-18.167 1.792-3.542 4.084-13.417 5.167-22.167l1.958-15.833-4.666-8.042c-2.959-5.083-33.75-37.125-83.167-86.458-91.417-91.292-128.583-126.417-140.833-133.083-17.292-9.334-30.167-5.667-56.334 16.166-28.041 23.375-92.541 90.542-98.958 103.084-1.75 3.375-4.042 13.291-5.125 22.041l-1.917 15.875 4.584 7c10.666 16.084 20.583 21.375 40.166 21.417 21.334.083 29.084-4.917 76.417-49.167l24.333-22.75 67.917 66.584c77.917 76.375 104 100.875 111.167 104.541 5.375 2.75 20.166 2.334 36.041-1.041" glyph-name="check-circle" horiz-adv-x="1000" unicode=""/><glyph d="M766.25 531.939c-19.083-16.667-66.458-62.959-232.083-226.834L400.292 172.647l-36.125 35.833c-50.083 49.584-92 90.084-119.375 115.417l-23.208 21.5-19.292-1.167c-16.125-.958-20.417-1.791-26.208-5.166-19-11.125-27.625-35.334-18.959-53.167 1.792-3.75 15.084-19.542 29.5-35.125 37.125-40.167 167.209-169.875 182.5-182 14.959-11.875 21.584-14.458 34.5-13.542 11.292.834 17.042 4.417 41.167 25.75 21.958 19.459 270.292 266.792 337.375 336.042 60.208 62.167 64.125 67.458 64.083 86.25-.041 12.958-3.916 21.458-13.875 30.417-8.5 7.708-20.375 11.25-37.666 11.25h-13.5z" glyph-name="check" horiz-adv-x="1000" unicode=""/><glyph d="M690.396 444.587c-16.792-2.791-25.042-9.875-124.167-106.458l-67.125-65.417-52.041 51.25c-86.875 85.584-120.375 115.584-132.875 119.084-9.459 2.625-31.209 2-37.709-1.084-12.291-5.833-23.958-25.916-23.958-41.125.042-17.708 10.917-30.583 107.458-127 76.584-76.583 111.542-109.208 123.292-115.041 15.333-7.667 28.208-4.875 46.791 10.041 35 28.167 182.584 175.375 202.125 201.667 9.167 12.292 15.292 25 15.292 31.667 0 12.083-14.042 32.708-26.625 39.083-7.292 3.708-20.042 5.083-30.458 3.333" glyph-name="cheveron-down" horiz-adv-x="1000" unicode=""/><glyph d="M582.57 543.177c-9.333-4.583-25.417-19.083-79.542-71.583-63.708-61.75-128.5-128.959-139.541-144.625-9.625-13.709-13-25.667-9.917-35.042 1.083-3.333 5.333-10.583 9.417-16.167 17.958-24.375 195.291-201.333 214.666-214.166 7.084-4.709 11.25-6.25 19.167-6.959 14.083-1.291 22.542 2.292 35.792 15.125 11.291 10.917 14.333 17.334 14.375 30.375 0 20.334-5.834 27.375-114.625 138.625l-60.709 62.125 47.125 47.875c87.5 88.959 118.542 123.292 125.375 138.709 11.417 25.708-7.083 51.916-40.041 56.666-14.667 2.125-15.334 2.084-21.542-.958" glyph-name="cheveron-left" horiz-adv-x="1000" unicode=""/><glyph d="M369.23 534.545c-13.292-14.166-16.084-19.583-16.125-31 0-7.208 1.166-11.333 5.458-19.333 8.375-15.667 43.542-53.708 131-141.917l40.042-40.416-38.417-38.75c-86.708-87.459-126.75-130.584-133.125-143.375-13.083-26.25 5.875-57.584 39.125-64.709 17.792-3.833 27.542 4.25 135.958 112.584C613.98 248.42 636.355 272.42 642.438 284.92c8.083 16.75 5.375 30.375-9.792 49.209-11.875 14.791-169.291 172.625-189.333 189.916-19.917 17.167-25.583 19.667-46.667 20.75l-17.041.875z" glyph-name="cheveron-right" horiz-adv-x="1000" unicode=""/><glyph d="M475.972 440.366c-11.041-7.333-90.375-84.167-148.666-144-70.625-72.542-74.167-76.958-74.167-93.042 0-11.5 4.417-21.666 13.792-31.875 12.125-13.125 28.208-19.375 41.166-15.875 14.417 3.875 32.417 19.917 136.584 121.459l55.416 54.083 46.25-45.625c87.917-86.833 122.5-118.125 140-126.833 10.125-5 10.792-5.084 19.542-3.125 15.5 3.458 34.125 19.416 38.875 33.291 4.875 14.209 1.5 25.792-12.75 43.875-15.125 19.125-188.417 192.25-201.958 201.709-12.667 8.833-20.084 11.208-35.125 11.25-9.542 0-12-.709-18.959-5.292" glyph-name="cheveron-up" horiz-adv-x="1000" unicode=""/><glyph d="M225.82 613.727c-12.166-9.917-21.666-23.917-22.75-33.542-1.083-9.542 4.25-21.583 15.292-34.5 16.25-19 120.459-125.625 171.75-175.625 91.459-89.25 93.625-91.042 109.875-91.042 18.125 0 33.875 13.375 143.292 121.667 79.5 78.708 137.667 139.083 146.875 152.417 5.542 8.083 6.583 11 7.167 20.25.875 13.5-2.417 22.791-10.959 31.041-11.166 10.75-26.791 16.25-46.333 16.292-11.125 0-15.833-4.292-152.833-138.958l-86.25-84.792-69.375 68.125c-131.084 128.667-151.167 147-166 151.417-4.292 1.291-13 2.833-19.292 3.458l-11.417 1.125zm-5.042-304.125c-22.667-23.5-23.792-35.792-5.667-60.417 15.959-21.625 218.917-226 250.959-252.708 8.541-7.084 18-13.917 21-15.167 9.375-3.917 21.916-2.917 31.375 2.542 12.875 7.416 50.25 42.916 149.333 141.833 90 89.792 120.417 122 126.083 133.333 4.375 8.792 3.917 28.709-.875 37.834-6.833 12.958-28.583 23.833-47.791 23.833-9.917 0-11.167-.458-20.334-7.333-14.125-10.667-67.666-61.792-151-144.25l-72.958-72.125-69.375 68.083c-131.708 129.333-151.083 147-166.25 151.5-4.458 1.333-13.833 2.875-20.833 3.458l-12.667 1.042z" glyph-name="chevron-double-down" horiz-adv-x="1000" unicode=""/><glyph d="M454.558 592.62c-11.583-7.416-61.583-55.708-154.167-148.833-107.208-107.916-118.166-120.083-122.333-135.916-3.75-14.292 5.292-29.667 38.417-65.334 36.083-38.833 142.75-146.291 182.541-183.875 41.167-38.875 55.209-50.375 65.959-53.958 7.208-2.375 8.791-2.375 16.708-.083 18.833 5.5 33.167 19.291 38.875 37.333 7.083 22.5 5.708 24.125-147.292 179.958l-77.291 78.75 79 80.417c43.458 44.25 88.666 90.542 100.416 102.917 42.334 44.541 50.5 58.166 45.25 75.541-5.458 18.209-19.666 30.334-41.333 35.25-14.917 3.417-16.167 3.292-24.75-2.166m300 0c-11.583-7.417-61.583-55.709-154.167-148.834-107.208-107.916-118.166-120.083-122.333-135.916-3.75-14.292 5.292-29.667 38.417-65.334 36.083-38.833 142.75-146.291 182.541-183.875 41.167-38.875 55.209-50.375 65.959-53.958 7.208-2.375 8.791-2.375 16.708-.083 18.833 5.5 33.167 19.291 38.875 37.333 7.083 22.5 5.708 24.125-147.292 179.958l-77.291 78.75 79 80.417c43.458 44.25 88.666 90.542 100.416 102.917 42.334 44.541 50.5 58.166 45.25 75.541-5.458 18.209-19.666 30.334-41.333 35.25-14.917 3.417-16.167 3.292-24.75-2.166" glyph-name="chevron-double-left" horiz-adv-x="1000" unicode=""/><glyph d="M196.61 587.377c-14-10.667-18.291-18.75-18.291-34.334 0-7.916.958-13.25 3.167-17.583 6.958-13.542 47.208-56.625 153.416-164.083l68.792-69.584-76.5-77.916C205.819 100.252 188.527 81.752 182.319 68.793c-4.292-8.916-5.042-23.833-1.625-32.75 5.542-14.541 29.208-31.333 44.542-31.625 16.208-.291 39.041 19.834 158.916 139.875 82.709 82.834 119.625 121.292 129.25 134.584 2.625 3.583 5.625 10.583 6.75 15.541 2.75 12.334.292 20-11.583 35.709-10.458 13.875-160.833 166.125-217.125 219.833-21.208 20.292-39.458 36.292-44.458 39-6.834 3.708-11.375 4.75-24 5.583l-15.542 1.042zm307.125 5.125c-9.25-4.75-19.917-15.334-22.917-22.75-4.583-11.209-4-27.667 1.292-36.542 7.833-13.208 67.083-75.583 171.791-180.875l50-50.333-68.916-69.667c-85-85.958-136.417-139.875-145.834-153.042-14.125-19.708-15.125-36.666-3.208-53 9.917-13.583 24.833-21.166 41.542-21.166 10.833 0 14.666 2.166 34.333 19.291 38.958 33.959 227.25 223.75 248.083 250.125 12.75 16.125 14.917 28.542 7.625 43.167-5.375 10.792-42.75 50.75-128.375 137.25-86.5 87.375-129.5 128.125-141.708 134.292-11.875 6-35.042 7.708-43.708 3.25" glyph-name="chevron-double-right" horiz-adv-x="1000" unicode=""/><glyph d="M444.157 586.768C393.782 538.476 235.991 379.643 222.2 363.35c-14.875-17.583-18.667-25.667-18.625-39.417.042-25 19.833-43.333 49.833-46.125 9.875-.916 10.292-.791 18.709 5.834 10.666 8.458 38.708 35.5 144.375 139.333l83.041 81.583 53.625-53.375C668.782 336.143 718.2 290.018 733.491 282.851c15.25-7.125 31.541-3.958 45.916 8.958 11.709 10.542 15.459 18.459 15.625 32.959.167 15.125-2.083 19.458-21.208 41.083-39.417 44.5-229.333 232.208-246.417 243.458-9.708 6.459-21 10.167-36.75 12.125l-9.125 1.167zm-88.291-387.292C288.407 131.809 228.24 70.559 222.157 63.35c-14.833-17.583-18.625-25.667-18.583-39.417.042-25 19.833-43.333 49.833-46.125 9.875-.916 10.292-.791 18.5 5.709 10.834 8.541 43.834 40.333 145.459 140.208l82.166 80.792 55.334-54.959C666.74 38.351 715.074-7.357 730.157-16.316c7.584-4.5 9.334-4.875 19.542-4.125 19.875 1.5 34.708 11.375 42.792 28.584 7.708 16.416 4.416 29.583-12.75 50.791-15.125 18.75-243.042 244.959-253.292 251.459-10.792 6.833-19.583 9.541-35.583 11l-12.375 1.125z" glyph-name="chevron-double-up" horiz-adv-x="1000" unicode=""/><glyph d="M585.727 743.346c-15.084-4.708-26.917-18.375-31.25-36.166-1.417-5.792-3.042-20.875-3.584-33.459l-1.041-22.916h-98.959l-1.041 26.25c-1.209 30.208-3.375 39.166-12 49.708-8.75 10.667-19.584 15.667-36.584 16.875-7.625.542-15.875.458-18.375-.167-7.75-1.958-22.041-16.916-25.833-27.041-3.833-10.375-6.667-32.084-6.708-51.709V651.18l-22.084-1.125c-45.791-2.375-90.791-5.875-99.625-7.709-18.208-3.833-37.125-15.333-52.791-32.083-11.042-11.833-17.375-23.583-20.375-37.792-2.75-12.916-5.042-53.708-5.084-90.25l-.041-31.083-12.084-1.125c-16.875-1.583-45.916-5.75-53.166-7.667-17.209-4.5-29.25-19.166-30.917-37.625-2.25-25.333 12.75-43.166 42-49.833 6.417-1.458 21.25-3.083 32.917-3.625l21.25-.958v-99.167l-12.084-1.083c-32.791-2.917-52.666-7.125-64.791-13.709-23-12.458-26.542-44.166-7.5-66.708 9.791-11.583 36.625-18.792 69.791-18.833h14.584v-31.25c.041-17.167.791-43.459 1.666-58.375 2.417-39.709 7.25-52.084 28.875-74.167 15.875-16.167 28.667-25.583 40.417-29.708 11.292-4 47.792-6.375 97.542-6.459l31.041-.041.875-23.75c1.709-45.292 13.584-65.709 41.542-71.584 7.875-1.625 10.458-1.416 20.625 1.667 26.25 8.042 34.917 24.75 36.958 71.583l.959 22.084h99.5v-13.75c0-18.959 3.041-42.042 6.916-52.375 3.625-9.709 13.334-20.334 22.667-24.875 7.625-3.667 25.583-5 34.792-2.5 9.416 2.541 19.625 10.375 24.583 18.833 6.458 11.042 9.375 25 10.5 50.667l1.042 23.5 45.166 1c84.5 1.875 93.625 4.625 126.209 38.083 13.75 14.125 16.75 19.042 20.625 34.167 4.541 17.791 5.958 34.208 6.958 81l1 46.25h17.708c41.792.041 62.792 8.958 73.792 31.333 5.292 10.708 5.333 28.208.125 38.083-4.958 9.375-15.417 17.959-25.875 21.167-8 2.5-28.542 5.875-51.208 8.5-15.167 1.75-14.084-2.083-14.709 52.5l-.5 48.417h18c42.167.041 63.125 8.875 74.167 31.333 5.292 10.708 5.333 28.208.125 38.083-4.917 9.334-15.25 17.834-25.833 21.25-4.834 1.542-21.125 4.375-36.25 6.292-15.125 1.875-27.709 3.625-28 3.875-.25.208-1.167 20.208-2 44.375-.875 24.167-2 49.958-2.584 57.292-1.958 25.666-11.125 44.791-30.708 64.166-24.167 23.875-35.875 26.792-128.375 31.75-18.792 1.042-34.833 2.542-35.708 3.334-.834.791-2.167 10.666-2.917 21.958-1.708 24.25-6.167 43.5-12.167 52.583-5.541 8.375-17.083 14.667-30.916 16.917-12.917 2.125-12.334 2.125-21.25-.667m164.625-442.541v-250h-500v500h500zm-400 0v-150h300v300h-300z" glyph-name="chip" horiz-adv-x="1000" unicode=""/></font>
</defs>
</svg>
