<svg xmlns="http://www.w3.org/2000/svg" width="40" height="40" fill="none" viewBox="0 0 40 40"><path stroke="#FD366E" stroke-linecap="round" stroke-linejoin="round" stroke-width="1.2" d="M14 14V9.556c0-1.474.632-2.887 1.757-3.929S18.41 4 20 4s3.117.585 4.243 1.627C25.368 6.67 26 8.082 26 9.556V14"/><path fill="url(#a)" fill-rule="evenodd" d="M9.111 14H30.89c1.717 0 3.11 1.79 3.11 4v14c0 2.21-1.393 4-3.111 4H9.11C7.393 36 6 34.21 6 32V18c0-2.21 1.393-4 3.111-4m14.639 8.5a3.75 3.75 0 0 1-1.741 3.167l1.116 5.583h-6.25l1.116-5.583A3.75 3.75 0 1 1 23.75 22.5" clip-rule="evenodd"/><path fill="#FD366E" d="m22.009 25.667-.322-.506a.6.6 0 0 0-.267.624zm1.116 5.583v.6a.6.6 0 0 0 .588-.718zm-6.25 0-.588-.118a.6.6 0 0 0 .588.718zm1.116-5.583.589.118a.6.6 0 0 0-.267-.624zM30.89 13.4H9.11v1.2h21.78zM34.6 18c0-2.391-1.53-4.6-3.711-4.6v1.2c1.255 0 2.511 1.373 2.511 3.4zm0 14V18h-1.2v14zm-3.711 4.6c2.181 0 3.711-2.209 3.711-4.6h-1.2c0 2.027-1.256 3.4-2.511 3.4zm-21.778 0H30.89v-1.2H9.11zM5.4 32c0 2.391 1.53 4.6 3.711 4.6v-1.2C7.856 35.4 6.6 34.027 6.6 32zm0-14v14h1.2V18zm3.711-4.6C6.93 13.4 5.4 15.609 5.4 18h1.2c0-2.027 1.256-3.4 2.511-3.4zm13.22 12.774A4.35 4.35 0 0 0 24.35 22.5h-1.2a3.15 3.15 0 0 1-1.463 2.66zm1.382 4.958-1.116-5.582-1.177.235 1.117 5.583zm-6.838.718h6.25v-1.2h-6.25zm.528-6.3-1.116 5.582 1.176.236 1.117-5.583zM15.65 22.5c0 1.546.807 2.903 2.02 3.674l.643-1.013A3.15 3.15 0 0 1 16.85 22.5zM20 18.15a4.35 4.35 0 0 0-4.35 4.35h1.2A3.15 3.15 0 0 1 20 19.35zm4.35 4.35A4.35 4.35 0 0 0 20 18.15v1.2a3.15 3.15 0 0 1 3.15 3.15z"/><g filter="url(#b)"><path fill="#FD366E" d="m22.009 25.667-.322-.506a.6.6 0 0 0-.267.624zm-4.018 0 .589.118a.6.6 0 0 0-.267-.624zm-1.116 5.583-.588-.118a.6.6 0 0 0 .588.718zm6.25 0v.6a.6.6 0 0 0 .588-.718zm.025-8.75a3.15 3.15 0 0 1-1.463 2.66l.643 1.014a4.35 4.35 0 0 0 2.02-3.674zM20 19.35a3.15 3.15 0 0 1 3.15 3.15h1.2A4.35 4.35 0 0 0 20 18.15zm-3.15 3.15A3.15 3.15 0 0 1 20 19.35v-1.2a4.35 4.35 0 0 0-4.35 4.35zm1.463 2.66a3.15 3.15 0 0 1-1.463-2.66h-1.2c0 1.546.807 2.903 2.02 3.674zm-.85 6.208 1.117-5.583-1.177-.235-1.116 5.582zm5.662-.718h-6.25v1.2h6.25zm-1.705-4.865 1.117 5.583 1.176-.236-1.116-5.582z"/></g><defs><linearGradient id="a" x1="20.0018" x2="20.0018" y1="13.75" y2="36.25" gradientUnits="userSpaceOnUse"><stop stop-color="#FD366E" stop-opacity="0"/><stop offset="1" stop-color="#FD366E" stop-opacity="0.32"/></linearGradient><filter id="b" width="20.7002" height="25.7002" x="9.6499" y="12.1499" color-interpolation-filters="sRGB" filterUnits="userSpaceOnUse"><feFlood flood-opacity="0" result="BackgroundImageFix"/><feGaussianBlur in="BackgroundImageFix" stdDeviation="3"/><feComposite in2="SourceAlpha" operator="in" result="effect1_backgroundBlur_182_410"/><feBlend in="SourceGraphic" in2="effect1_backgroundBlur_182_410" result="shape"/></filter></defs></svg>